<svg width="32" height="32" viewBox="0 0 96 96" fill="none" xmlns="http://www.w3.org/2000/svg">
    <g clipPath="url(#clip0_637_805)">
      <path d="M32.5564 13H8L35.7414 48.4752L47.9993 32.7771L32.5564 13Z" fill="#008CD5"/>
      <path d="M88 13H63.4436L47.9994 32.7771L60.2586 48.4752L88 13Z" fill="#7AC943"/>
      <path d="M60.2088 48.5379L60.2586 48.4752L47.9994 32.7771L35.7415 48.4752L35.7899 48.5379H60.2088Z" fill="#00B480"/>
      <path d="M64.8691 54.3788L60.3071 48.5379H60.2088L47.9994 64.1511L55.5774 73.8424L63.5209 84H88L64.8691 54.3788Z" fill="#008CD5"/>
      <path d="M35.7899 48.5379H35.6917L31.131 54.3788L8 84H32.4791L40.4213 73.8424L47.9993 64.1511L35.7899 48.5379Z" fill="#7AC943"/>
      <path d="M47.9993 64.1511L60.2088 48.5379H35.7899L47.9993 64.1511Z" fill="#0076B480"/>
    </g>
    <defs>
      <clipPath id="clip0_637_805">
        <rect width="80" height="71" fill="white" transform="translate(8 13)"/>
      </clipPath>
    </defs>
  </svg>