<svg width="208" height="40" viewBox="0 0 208 40" fill="none" xmlns="http://www.w3.org/2000/svg">
<g clip-path="url(#clip0_535_4254)">
<path d="M38.4687 16.9645C38.9024 16.9645 39.1626 16.7492 39.2494 16.3186C39.2927 16.2325 39.2927 16.1464 39.2927 16.1033V12.099C39.2927 11.6685 39.0759 11.3671 38.6422 11.281C38.5555 11.2379 38.5121 11.2379 38.4254 11.2379H5.6814V16.9214H38.4687V16.9645ZM27.7998 22.4327H5.59466V33.0678H0V5.85577H40.2469C42.1985 5.85577 43.5863 6.6308 44.367 8.18085C44.7139 8.82671 44.8874 9.60174 44.8874 10.4198V17.8256C44.8874 19.7632 44.1068 21.098 42.5888 21.9161C41.8949 22.2605 41.1143 22.4758 40.2902 22.4758H34.9124L45.5813 33.1109H38.4687L27.7998 22.4327Z" fill="#008CD5"/>
<path d="M90.6422 5.85577C92.5938 5.85577 93.9816 6.6308 94.7623 8.18085C95.1093 8.82671 95.2827 9.60173 95.2827 10.4198V33.1109H89.6447V22.4327H56.2068V33.0678H50.4821V10.4198C50.4821 8.48225 51.2627 7.14748 52.824 6.37246C53.4746 6.028 54.2552 5.81271 55.1226 5.81271H90.6422V5.85577ZM88.7773 11.281H56.9441C56.5104 11.281 56.2502 11.4962 56.1635 11.9268C56.1201 12.0129 56.1201 12.056 56.1201 12.1421C56.1201 12.4004 56.1201 14.0366 56.1635 17.0075H89.6013V12.1852C89.6013 11.7546 89.3845 11.4532 88.9942 11.3671C88.9074 11.324 88.864 11.281 88.7773 11.281Z" fill="#008CD5"/>
<path d="M135.66 33.1109H100.834V5.85577H135.66C138.609 5.85577 141.081 6.9322 143.076 9.08505C144.811 11.0226 145.678 13.2185 145.678 15.802V23.1216C145.678 26.0926 144.594 28.5468 142.382 30.5275C140.474 32.2497 138.218 33.1109 135.66 33.1109ZM135.703 27.6426C137.004 27.6426 138.132 27.0398 139.086 25.8342C139.693 25.0592 139.997 24.2411 139.997 23.38V15.5867C139.997 14.2519 139.346 13.1324 138.132 12.1852C137.351 11.5824 136.527 11.324 135.703 11.324H106.472V27.6857H135.703V27.6426Z" fill="#008CD5"/>
<path d="M152.53 5.85577H158.125V33.1109H152.53V5.85577Z" fill="#008CD5"/>
<g clip-path="url(#clip1_535_4254)">
<path d="M176.813 0H163L178.605 19.986L185.5 11.142L176.813 0Z" fill="#008CD5"/>
<path d="M208 0H194.187L185.5 11.142L192.395 19.986L208 0Z" fill="#7AC943"/>
<path d="M192.367 20.0214L192.395 19.986L185.5 11.142L178.605 19.986L178.632 20.0214H192.367Z" fill="#00B480"/>
<path d="M194.989 23.312L192.423 20.0213H192.367L185.5 28.8175L189.762 34.2774L194.23 40H208L194.989 23.312Z" fill="#008CD5"/>
<path d="M178.632 20.0213H178.577L176.011 23.312L163 40H176.77L181.237 34.2774L185.5 28.8175L178.632 20.0213Z" fill="#7AC943"/>
<path d="M185.5 28.8175L192.367 20.0213H178.632L185.5 28.8175Z" fill="#0076B4"/>
</g>
</g>
<defs>
<clipPath id="clip0_535_4254">
<rect width="208" height="40" fill="white"/>
</clipPath>
<clipPath id="clip1_535_4254">
<rect width="45" height="40" fill="white" transform="translate(163)"/>
</clipPath>
</defs>
</svg>
