<svg width="255" height="48" viewBox="0 0 255 48" fill="none" xmlns="http://www.w3.org/2000/svg">
    <path fill-rule="evenodd" clip-rule="evenodd" d="M250.084 41.7641L254.938 35.5195H250.65L245.778 41.7641H250.084Z" fill="#1FD053"/>
    <path fill-rule="evenodd" clip-rule="evenodd" d="M245.778 41.7641L240.924 35.5195H245.212L247.931 39.0013L245.783 41.7641H245.778Z" fill="#038AD3"/>
    <path d="M228.709 48H220.525V35.5195H228.744C230.247 35.5195 231.498 35.9161 232.357 36.67C233.267 37.4674 233.729 38.6178 233.729 40.0864V43.4287C233.729 44.9016 233.267 46.0477 232.352 46.8452C231.489 47.5991 230.23 47.9956 228.709 47.9956V48ZM223.51 45.3592H228.709C230.021 45.3592 230.744 44.675 230.744 43.4287V40.0864C230.744 38.8619 230.017 38.1559 228.744 38.1559H223.51V45.3592Z" fill="#038AD3"/>
    <path d="M239.041 48H235.769V35.5195H239.041V48Z" fill="#038AD3"/>
    <path fill-rule="evenodd" clip-rule="evenodd" d="M254.938 47.9956H250.637L245.778 41.7598H250.079L254.938 47.9956Z" fill="#038AD3"/>
    <path fill-rule="evenodd" clip-rule="evenodd" d="M245.778 41.7642L240.915 48H245.225L247.931 44.5269L245.778 41.7642Z" fill="#1FD053"/>
    <path d="M32.6827 0.366089H54.5627C54.9375 0.366089 55.2381 0.671127 55.2381 1.04153V6.49736C55.2381 6.87213 54.9331 7.17281 54.5627 7.17281H32.6827V0.366089Z" fill="#1FD053"/>
    <path d="M32.6827 22.137H57.4431C57.8179 22.137 58.1186 22.4421 58.1186 22.8125V28.2683C58.1186 28.6431 57.8135 28.9438 57.4431 28.9438H32.6827V22.1327V22.137Z" fill="#1FD053"/>
    <path d="M32.6827 11.1993H49.5731C49.9479 11.1993 50.2486 11.5043 50.2486 11.8747V17.4352C50.2486 17.8099 49.9435 18.1106 49.5731 18.1106H32.6827V11.1949V11.1993Z" fill="#1FD053"/>
    <path d="M148.484 28.9307H144.837L139.777 18.0757C139.49 18.0844 139.202 18.0844 138.906 18.0844H124.813V28.9264H121.597V0.387817H138.906C144.736 0.387817 147.948 3.52972 147.948 9.23829C147.948 13.3302 146.201 16.2019 143.002 17.4133L148.484 28.9307ZM125.066 15.0645H138.867C143.455 15.0645 144.667 12.5153 144.693 9.33416C144.723 5.37738 142.762 3.37284 138.867 3.37284H125.066C124.926 3.37284 124.813 3.48614 124.813 3.62558V14.8118C124.813 14.9512 124.926 15.0645 125.066 15.0645Z" fill="#038AD3"/>
    <path d="M173.698 28.9307H151.63V0.387817H173.698V3.37284H154.851V13.1297H169.732V16.154H154.851V25.9108H173.698V28.9351V28.9307Z" fill="#038AD3"/>
    <path d="M201.835 28.9307H199.116L180.339 6.37965V28.9307H177.123V0.387817H179.881L198.619 22.9345V0.387817H201.835V28.9307Z" fill="#038AD3"/>
    <path d="M219.07 28.9307H215.854V3.37284H204.55V0.387817H230.125V3.37284H219.07V28.9307Z" fill="#038AD3"/>
    <path d="M242.501 29.3186C235.568 29.3186 231.751 26.1767 231.751 20.4681V19.5573H235.071V20.4681C235.071 24.3334 237.573 26.2943 242.501 26.2943C247.43 26.2943 249.888 24.5818 249.888 21.2045C249.888 18.6771 248.367 17.1606 245.234 16.568L239.464 15.5221C234.631 14.6331 232.078 12.0054 232.078 7.92229C232.078 4.96341 233.442 0 242.58 0C251.195 0 252.999 4.81089 252.999 8.85048V9.76123H249.678V8.85048C249.678 4.90241 247.356 2.98502 242.575 2.98502C237.795 2.98502 235.472 4.60608 235.472 7.80463C235.472 10.3713 236.993 11.8878 240.122 12.4412L245.896 13.4871C250.798 14.4153 253.282 16.9732 253.282 21.0869C253.282 26.3161 249.352 29.3186 242.493 29.3186H242.501Z" fill="#038AD3"/>
    <path d="M95.2897 0.366089H101.617V23.4357H117.963V28.9482H95.2853V0.366089H95.2897Z" fill="#038AD3"/>
    <path d="M204.053 48.0001H200.593L198.319 43.5421H194.035V48.0001H191.05V35.5153H199.469C202.297 35.5153 203.792 36.9664 203.792 39.7161C203.792 41.616 203.103 42.8928 201.739 43.516L204.058 47.9957L204.053 48.0001ZM194.031 41.2892L199.378 41.3023C200.314 41.3023 200.711 40.8316 200.711 39.7204C200.711 38.6092 200.31 38.156 199.373 38.156H194.026V41.2892H194.031Z" fill="#038AD3"/>
    <path d="M209.618 45.4203L208.734 48.0001H205.321L209.993 35.5153H214.146L218.961 47.9957H215.549L214.516 45.4159H209.614L209.618 45.4203ZM210.485 42.9451H213.802L212.416 39.2149H211.78L210.485 42.9451Z" fill="#038AD3"/>
    <path d="M29.811 28.9438H21.88L16.6638 18.7337H6.84594V28.9482H0V0.348633H19.2959C25.7758 0.348633 29.2009 3.67791 29.2009 9.97478C29.2009 14.3325 27.6191 17.2565 24.499 18.6771L29.8153 28.9395L29.811 28.9438ZM6.84594 13.2736C6.84594 13.4348 6.97667 13.5655 7.1379 13.5655L19.0954 13.596C21.235 13.596 22.1545 12.511 22.1545 9.97478C22.1545 7.4386 21.2394 6.39275 19.0911 6.39275L7.1379 6.40583C6.97667 6.40583 6.84594 6.53656 6.84594 6.69779V13.2736Z" fill="#038AD3"/>
    <path d="M70.9825 23.0348L68.9561 28.9482H61.1384L71.8409 0.348633H81.3581L92.3962 28.9438H84.5785L82.2123 23.0391H70.9781L70.9825 23.0348ZM72.9696 17.3698H80.5694L77.4667 9.02044C77.4231 8.90714 77.3142 8.82871 77.1922 8.82871H76.1463C76.02 8.82871 75.911 8.9115 75.8675 9.02916L72.9696 17.3741V17.3698Z" fill="#038AD3"/>
    </svg>
    