<svg width="640" height="154" viewBox="0 0 640 154" fill="none" xmlns="http://www.w3.org/2000/svg">
<path d="M1.224 19V6.4H6.174C7.086 6.4 7.896 6.58 8.604 6.94C9.312 7.288 9.864 7.78 10.26 8.416C10.668 9.04 10.872 9.76 10.872 10.576C10.872 11.392 10.668 12.118 10.26 12.754C9.852 13.39 9.288 13.888 8.568 14.248C7.86 14.596 7.044 14.77 6.12 14.77H4.122V19H1.224ZM8.064 19L5.22 13.996L7.398 12.394L11.376 19H8.064ZM4.122 12.106H6.084C6.42 12.106 6.72 12.04 6.984 11.908C7.248 11.776 7.452 11.596 7.596 11.368C7.752 11.128 7.83 10.864 7.83 10.576C7.83 10.132 7.662 9.766 7.326 9.478C7.002 9.19 6.57 9.046 6.03 9.046H4.122V12.106ZM17.0153 19.216C16.0793 19.216 15.2513 19.018 14.5313 18.622C13.8113 18.226 13.2473 17.674 12.8393 16.966C12.4313 16.258 12.2273 15.436 12.2273 14.5C12.2273 13.564 12.4313 12.742 12.8393 12.034C13.2473 11.326 13.8113 10.774 14.5313 10.378C15.2633 9.982 16.1033 9.784 17.0513 9.784C17.9033 9.784 18.6713 9.988 19.3553 10.396C20.0393 10.804 20.5793 11.416 20.9753 12.232C21.3833 13.036 21.5873 14.032 21.5873 15.22H14.8193L15.1253 14.878C15.1253 15.286 15.2093 15.646 15.3773 15.958C15.5453 16.27 15.7793 16.51 16.0793 16.678C16.3793 16.834 16.7153 16.912 17.0873 16.912C17.5313 16.912 17.9033 16.816 18.2033 16.624C18.5033 16.42 18.7133 16.168 18.8333 15.868L21.3353 16.714C21.0953 17.29 20.7533 17.764 20.3093 18.136C19.8773 18.508 19.3793 18.784 18.8153 18.964C18.2513 19.132 17.6513 19.216 17.0153 19.216ZM15.1973 13.726L14.9093 13.348H18.9413L18.6713 13.726C18.6713 13.27 18.5813 12.916 18.4013 12.664C18.2213 12.4 17.9993 12.208 17.7353 12.088C17.4833 11.968 17.2253 11.908 16.9613 11.908C16.6973 11.908 16.4273 11.968 16.1513 12.088C15.8873 12.208 15.6593 12.4 15.4673 12.664C15.2873 12.916 15.1973 13.27 15.1973 13.726ZM28.1136 19L28.0236 17.056V14.518C28.0236 14.038 27.9816 13.618 27.8976 13.258C27.8256 12.898 27.6756 12.622 27.4476 12.43C27.2316 12.226 26.9136 12.124 26.4936 12.124C26.1576 12.124 25.8636 12.202 25.6116 12.358C25.3596 12.514 25.1436 12.724 24.9636 12.988L22.4976 12.178C22.7136 11.734 22.9956 11.332 23.3436 10.972C23.7036 10.612 24.1416 10.324 24.6576 10.108C25.1736 9.892 25.7736 9.784 26.4576 9.784C27.3936 9.784 28.1856 9.958 28.8336 10.306C29.4816 10.654 29.9676 11.14 30.2916 11.764C30.6156 12.388 30.7776 13.126 30.7776 13.978L30.7416 19H28.1136ZM25.6476 19.216C24.5916 19.216 23.7696 18.982 23.1816 18.514C22.5936 18.034 22.2996 17.35 22.2996 16.462C22.2996 15.514 22.6056 14.806 23.2176 14.338C23.8296 13.87 24.6876 13.636 25.7916 13.636H28.2576V15.454H26.8356C26.2476 15.454 25.8216 15.538 25.5576 15.706C25.2936 15.862 25.1616 16.09 25.1616 16.39C25.1616 16.606 25.2576 16.78 25.4496 16.912C25.6536 17.032 25.9296 17.092 26.2776 17.092C26.6256 17.092 26.9256 17.02 27.1776 16.876C27.4416 16.72 27.6456 16.516 27.7896 16.264C27.9456 16.012 28.0236 15.742 28.0236 15.454H28.7436C28.7436 16.642 28.4856 17.566 27.9696 18.226C27.4656 18.886 26.6916 19.216 25.6476 19.216ZM32.4883 19V6.4H35.2963V19H32.4883ZM37.4349 19V6.4H42.3849C43.2969 6.4 44.1069 6.58 44.8149 6.94C45.5229 7.288 46.0749 7.78 46.4709 8.416C46.8789 9.04 47.0829 9.76 47.0829 10.576C47.0829 11.392 46.8789 12.118 46.4709 12.754C46.0629 13.39 45.4989 13.888 44.7789 14.248C44.0709 14.596 43.2549 14.77 42.3309 14.77H40.3329V19H37.4349ZM44.2749 19L41.4309 13.996L43.6089 12.394L47.5869 19H44.2749ZM40.3329 12.106H42.2949C42.6309 12.106 42.9309 12.04 43.1949 11.908C43.4589 11.776 43.6629 11.596 43.8069 11.368C43.9629 11.128 44.0409 10.864 44.0409 10.576C44.0409 10.132 43.8729 9.766 43.5369 9.478C43.2129 9.19 42.7809 9.046 42.2409 9.046H40.3329V12.106ZM53.2263 19.216C52.2903 19.216 51.4623 19.018 50.7423 18.622C50.0223 18.226 49.4583 17.674 49.0503 16.966C48.6423 16.258 48.4383 15.436 48.4383 14.5C48.4383 13.564 48.6423 12.742 49.0503 12.034C49.4583 11.326 50.0223 10.774 50.7423 10.378C51.4743 9.982 52.3143 9.784 53.2623 9.784C54.1143 9.784 54.8823 9.988 55.5663 10.396C56.2503 10.804 56.7903 11.416 57.1863 12.232C57.5943 13.036 57.7983 14.032 57.7983 15.22H51.0303L51.3363 14.878C51.3363 15.286 51.4203 15.646 51.5883 15.958C51.7563 16.27 51.9903 16.51 52.2903 16.678C52.5903 16.834 52.9263 16.912 53.2983 16.912C53.7423 16.912 54.1143 16.816 54.4143 16.624C54.7143 16.42 54.9243 16.168 55.0443 15.868L57.5463 16.714C57.3063 17.29 56.9643 17.764 56.5203 18.136C56.0883 18.508 55.5903 18.784 55.0263 18.964C54.4623 19.132 53.8623 19.216 53.2263 19.216ZM51.4083 13.726L51.1203 13.348H55.1523L54.8823 13.726C54.8823 13.27 54.7923 12.916 54.6123 12.664C54.4323 12.4 54.2103 12.208 53.9463 12.088C53.6943 11.968 53.4363 11.908 53.1723 11.908C52.9083 11.908 52.6383 11.968 52.3623 12.088C52.0983 12.208 51.8703 12.4 51.6783 12.664C51.4983 12.916 51.4083 13.27 51.4083 13.726ZM58.9785 19V10H61.6245L61.7865 11.656V19H58.9785ZM64.7745 19V14.392H67.5825V19H64.7745ZM64.7745 14.392C64.7745 13.912 64.7205 13.534 64.6125 13.258C64.5045 12.97 64.3485 12.76 64.1445 12.628C63.9525 12.496 63.7125 12.424 63.4245 12.412C62.8845 12.4 62.4765 12.55 62.2005 12.862C61.9245 13.162 61.7865 13.624 61.7865 14.248H60.9405C60.9405 13.3 61.0845 12.496 61.3725 11.836C61.6605 11.164 62.0505 10.654 62.5425 10.306C63.0465 9.958 63.6285 9.784 64.2885 9.784C65.0085 9.784 65.6145 9.934 66.1065 10.234C66.5985 10.522 66.9645 10.966 67.2045 11.566C67.4565 12.166 67.5825 12.934 67.5825 13.87V14.392H64.7745ZM73.1669 19.216C72.0989 19.216 71.3009 18.964 70.7729 18.46C70.2569 17.944 69.9989 17.212 69.9989 16.264V7.192H72.8069V15.562C72.8069 15.922 72.8729 16.186 73.0049 16.354C73.1369 16.522 73.3409 16.606 73.6169 16.606C73.7249 16.606 73.8509 16.582 73.9949 16.534C74.1389 16.474 74.2709 16.402 74.3909 16.318L75.3629 18.37C75.0749 18.61 74.7269 18.814 74.3189 18.982C73.9229 19.138 73.5389 19.216 73.1669 19.216ZM68.5949 12.358V10H74.8589V12.358H68.5949ZM80.134 19.216C79.546 19.216 78.994 19.132 78.478 18.964C77.974 18.796 77.53 18.556 77.146 18.244C76.774 17.92 76.498 17.53 76.318 17.074L78.64 16.102C78.796 16.402 79.012 16.63 79.288 16.786C79.564 16.93 79.846 17.002 80.134 17.002C80.422 17.002 80.65 16.954 80.818 16.858C80.986 16.75 81.07 16.606 81.07 16.426C81.07 16.234 80.986 16.084 80.818 15.976C80.65 15.868 80.404 15.772 80.08 15.688L79.288 15.508C78.46 15.292 77.818 14.932 77.362 14.428C76.906 13.924 76.678 13.342 76.678 12.682C76.678 11.758 76.996 11.044 77.632 10.54C78.268 10.036 79.15 9.784 80.278 9.784C80.926 9.784 81.49 9.874 81.97 10.054C82.462 10.222 82.87 10.462 83.194 10.774C83.53 11.074 83.77 11.422 83.914 11.818L81.682 12.754C81.598 12.514 81.424 12.328 81.16 12.196C80.896 12.064 80.614 11.998 80.314 11.998C80.05 11.998 79.846 12.058 79.702 12.178C79.558 12.298 79.486 12.448 79.486 12.628C79.486 12.772 79.57 12.898 79.738 13.006C79.918 13.102 80.176 13.192 80.512 13.276L81.466 13.51C82.03 13.654 82.504 13.876 82.888 14.176C83.272 14.464 83.56 14.806 83.752 15.202C83.944 15.586 84.04 16 84.04 16.444C84.04 17.02 83.872 17.518 83.536 17.938C83.212 18.346 82.756 18.664 82.168 18.892C81.58 19.108 80.902 19.216 80.134 19.216Z" fill="#333333"/>
<path d="M5.616 52.24C4.77333 52.24 4.02667 52.064 3.376 51.712C2.736 51.3493 2.23467 50.8533 1.872 50.224C1.50933 49.584 1.328 48.848 1.328 48.016V40.8H2.688V48.016C2.688 48.6027 2.81067 49.1253 3.056 49.584C3.312 50.032 3.664 50.384 4.112 50.64C4.56 50.8853 5.072 51.008 5.648 51.008C6.23467 51.008 6.752 50.8853 7.2 50.64C7.65867 50.384 8.01067 50.032 8.256 49.584C8.512 49.1253 8.64 48.6027 8.64 48.016V40.8H9.984V48.016C9.984 48.848 9.80267 49.584 9.44 50.224C9.07733 50.8533 8.56533 51.3493 7.904 51.712C7.24267 52.064 6.48 52.24 5.616 52.24ZM15.2325 52.192C14.6458 52.192 14.1338 52.1067 13.6965 51.936C13.2592 51.7547 12.8912 51.52 12.5925 51.232C12.3045 50.944 12.0965 50.6293 11.9685 50.288L13.0885 49.824C13.2698 50.1867 13.5418 50.48 13.9045 50.704C14.2672 50.928 14.6672 51.04 15.1045 51.04C15.6058 51.04 16.0272 50.944 16.3685 50.752C16.7098 50.5493 16.8805 50.2667 16.8805 49.904C16.8805 49.5733 16.7525 49.3067 16.4965 49.104C16.2512 48.9013 15.8832 48.736 15.3925 48.608L14.6245 48.4C13.8992 48.208 13.3338 47.92 12.9285 47.536C12.5232 47.1413 12.3205 46.6987 12.3205 46.208C12.3205 45.4507 12.5658 44.864 13.0565 44.448C13.5578 44.0213 14.2992 43.808 15.2805 43.808C15.7498 43.808 16.1765 43.8773 16.5605 44.016C16.9445 44.1547 17.2752 44.352 17.5525 44.608C17.8298 44.8533 18.0325 45.1467 18.1605 45.488L17.0405 45.984C16.9018 45.6213 16.6725 45.36 16.3525 45.2C16.0325 45.04 15.6432 44.96 15.1845 44.96C14.6938 44.96 14.3098 45.0667 14.0325 45.28C13.7552 45.4827 13.6165 45.7707 13.6165 46.144C13.6165 46.3573 13.7285 46.56 13.9525 46.752C14.1872 46.9333 14.5285 47.0827 14.9765 47.2L15.7765 47.408C16.2992 47.536 16.7365 47.728 17.0885 47.984C17.4405 48.2293 17.7072 48.512 17.8885 48.832C18.0698 49.152 18.1605 49.4933 18.1605 49.856C18.1605 50.336 18.0325 50.752 17.7765 51.104C17.5205 51.456 17.1738 51.728 16.7365 51.92C16.2992 52.1013 15.7978 52.192 15.2325 52.192ZM24.8136 52L24.7496 50.688V47.776C24.7496 47.1467 24.6803 46.6293 24.5416 46.224C24.403 45.808 24.1843 45.4933 23.8856 45.28C23.587 45.0667 23.1976 44.96 22.7176 44.96C22.2803 44.96 21.9016 45.0507 21.5816 45.232C21.2723 45.4027 21.0163 45.68 20.8136 46.064L19.6616 45.616C19.8643 45.2427 20.1096 44.9227 20.3976 44.656C20.6856 44.3787 21.0216 44.1707 21.4056 44.032C21.7896 43.8827 22.227 43.808 22.7176 43.808C23.4643 43.808 24.0776 43.9573 24.5576 44.256C25.0483 44.544 25.4163 44.976 25.6616 45.552C25.907 46.1173 26.0243 46.8213 26.0136 47.664L25.9976 52H24.8136ZM22.4136 52.192C21.475 52.192 20.739 51.9787 20.2056 51.552C19.683 51.1147 19.4216 50.512 19.4216 49.744C19.4216 48.9333 19.6883 48.3147 20.2216 47.888C20.7656 47.4507 21.523 47.232 22.4936 47.232H24.7816V48.304H22.7816C22.035 48.304 21.5016 48.4267 21.1816 48.672C20.8723 48.9173 20.7176 49.2693 20.7176 49.728C20.7176 50.144 20.8723 50.4747 21.1816 50.72C21.491 50.9547 21.923 51.072 22.4776 51.072C22.9363 51.072 23.3363 50.976 23.6776 50.784C24.019 50.5813 24.2803 50.2987 24.4616 49.936C24.6536 49.5627 24.7496 49.1253 24.7496 48.624H25.2936C25.2936 49.712 25.0483 50.5813 24.5576 51.232C24.067 51.872 23.3523 52.192 22.4136 52.192ZM31.2419 55.392C30.7299 55.392 30.2605 55.3387 29.8339 55.232C29.4179 55.136 29.0605 55.024 28.7619 54.896C28.4739 54.7787 28.2659 54.6773 28.1379 54.592L28.6179 53.552C28.7565 53.6267 28.9539 53.7173 29.2099 53.824C29.4659 53.9413 29.7645 54.0373 30.1059 54.112C30.4579 54.1973 30.8312 54.24 31.2259 54.24C31.7379 54.24 32.1965 54.1333 32.6019 53.92C33.0179 53.7173 33.3379 53.392 33.5619 52.944C33.7965 52.5067 33.9139 51.9413 33.9139 51.248V44H35.1939V51.232C35.1939 52.1493 35.0232 52.9173 34.6819 53.536C34.3405 54.1547 33.8712 54.6187 33.2739 54.928C32.6765 55.2373 31.9992 55.392 31.2419 55.392ZM31.1939 51.936C30.4792 51.936 29.8499 51.7653 29.3059 51.424C28.7619 51.0827 28.3352 50.608 28.0259 50C27.7272 49.3813 27.5779 48.6773 27.5779 47.888C27.5779 47.0773 27.7272 46.368 28.0259 45.76C28.3352 45.1413 28.7619 44.6613 29.3059 44.32C29.8499 43.9787 30.4792 43.808 31.1939 43.808C31.8659 43.808 32.4525 43.9787 32.9539 44.32C33.4552 44.6613 33.8445 45.1413 34.1219 45.76C34.4099 46.368 34.5539 47.0773 34.5539 47.888C34.5539 48.688 34.4099 49.392 34.1219 50C33.8445 50.608 33.4552 51.0827 32.9539 51.424C32.4525 51.7653 31.8659 51.936 31.1939 51.936ZM31.4979 50.832C31.9672 50.832 32.3832 50.704 32.7459 50.448C33.1085 50.192 33.3912 49.8453 33.5939 49.408C33.7965 48.96 33.8979 48.4427 33.8979 47.856C33.8979 47.2907 33.7912 46.7893 33.5779 46.352C33.3752 45.904 33.0925 45.5573 32.7299 45.312C32.3779 45.056 31.9619 44.928 31.4819 44.928C30.9805 44.928 30.5325 45.056 30.1379 45.312C29.7539 45.5573 29.4499 45.904 29.2259 46.352C29.0125 46.7893 28.9059 47.2907 28.9059 47.856C28.9059 48.4427 29.0179 48.96 29.2419 49.408C29.4659 49.8453 29.7699 50.192 30.1539 50.448C30.5485 50.704 30.9965 50.832 31.4979 50.832ZM40.9365 52.192C40.1578 52.192 39.4698 52.016 38.8725 51.664C38.2752 51.3013 37.8058 50.8053 37.4645 50.176C37.1338 49.5467 36.9685 48.8213 36.9685 48C36.9685 47.1787 37.1338 46.4533 37.4645 45.824C37.8058 45.1947 38.2698 44.704 38.8565 44.352C39.4538 43.9893 40.1365 43.808 40.9045 43.808C41.6512 43.808 42.2965 43.9947 42.8405 44.368C43.3845 44.7307 43.8058 45.2427 44.1045 45.904C44.4032 46.5653 44.5525 47.344 44.5525 48.24H37.9445L38.2645 47.968C38.2645 48.608 38.3765 49.1573 38.6005 49.616C38.8352 50.0747 39.1605 50.4267 39.5765 50.672C39.9925 50.9067 40.4672 51.024 41.0005 51.024C41.5658 51.024 42.0405 50.8907 42.4245 50.624C42.8192 50.3573 43.1232 50.0053 43.3365 49.568L44.4405 50.128C44.2378 50.544 43.9658 50.9067 43.6245 51.216C43.2938 51.5253 42.8992 51.7653 42.4405 51.936C41.9925 52.1067 41.4912 52.192 40.9365 52.192ZM38.3445 47.424L38.0085 47.168H43.5285L43.1925 47.44C43.1925 46.928 43.0912 46.4853 42.8885 46.112C42.6858 45.7387 42.4138 45.4507 42.0725 45.248C41.7312 45.0453 41.3365 44.944 40.8885 44.944C40.4512 44.944 40.0352 45.0453 39.6405 45.248C39.2565 45.4507 38.9418 45.7387 38.6965 46.112C38.4618 46.4747 38.3445 46.912 38.3445 47.424ZM47.0629 45.744C46.8175 45.744 46.6042 45.6587 46.4229 45.488C46.2522 45.3173 46.1669 45.1093 46.1669 44.864C46.1669 44.6187 46.2522 44.4107 46.4229 44.24C46.6042 44.0587 46.8175 43.968 47.0629 43.968C47.2975 43.968 47.5002 44.0587 47.6709 44.24C47.8522 44.4107 47.9429 44.6187 47.9429 44.864C47.9429 45.1093 47.8522 45.3173 47.6709 45.488C47.5002 45.6587 47.2975 45.744 47.0629 45.744ZM47.0789 52.032C46.8335 52.032 46.6255 51.9467 46.4549 51.776C46.2842 51.5947 46.1989 51.3813 46.1989 51.136C46.1989 50.8907 46.2842 50.6827 46.4549 50.512C46.6255 50.3413 46.8335 50.256 47.0789 50.256C47.3242 50.256 47.5322 50.3413 47.7029 50.512C47.8842 50.6827 47.9749 50.8907 47.9749 51.136C47.9749 51.3813 47.8842 51.5947 47.7029 51.776C47.5322 51.9467 47.3242 52.032 47.0789 52.032ZM54.5349 52V40.8H55.9109L62.5829 49.792V40.8H63.9429V52H62.5829L55.8949 42.96V52H54.5349ZM71.4855 52L71.4215 50.688V47.776C71.4215 47.1467 71.3522 46.6293 71.2135 46.224C71.0748 45.808 70.8562 45.4933 70.5575 45.28C70.2588 45.0667 69.8695 44.96 69.3895 44.96C68.9522 44.96 68.5735 45.0507 68.2535 45.232C67.9442 45.4027 67.6882 45.68 67.4855 46.064L66.3335 45.616C66.5362 45.2427 66.7815 44.9227 67.0695 44.656C67.3575 44.3787 67.6935 44.1707 68.0775 44.032C68.4615 43.8827 68.8988 43.808 69.3895 43.808C70.1362 43.808 70.7495 43.9573 71.2295 44.256C71.7202 44.544 72.0882 44.976 72.3335 45.552C72.5788 46.1173 72.6962 46.8213 72.6855 47.664L72.6695 52H71.4855ZM69.0855 52.192C68.1468 52.192 67.4108 51.9787 66.8775 51.552C66.3548 51.1147 66.0935 50.512 66.0935 49.744C66.0935 48.9333 66.3602 48.3147 66.8935 47.888C67.4375 47.4507 68.1948 47.232 69.1655 47.232H71.4535V48.304H69.4535C68.7068 48.304 68.1735 48.4267 67.8535 48.672C67.5442 48.9173 67.3895 49.2693 67.3895 49.728C67.3895 50.144 67.5442 50.4747 67.8535 50.72C68.1628 50.9547 68.5948 51.072 69.1495 51.072C69.6082 51.072 70.0082 50.976 70.3495 50.784C70.6908 50.5813 70.9522 50.2987 71.1335 49.936C71.3255 49.5627 71.4215 49.1253 71.4215 48.624H71.9655C71.9655 49.712 71.7202 50.5813 71.2295 51.232C70.7388 51.872 70.0242 52.192 69.0855 52.192ZM77.0368 52L80.3008 44H81.6448L78.3008 52H77.0368ZM76.9568 52L73.6128 44H74.9408L78.2048 52H76.9568ZM86.8544 52V40.8H88.1344V50.512L88.0704 52H86.8544ZM90.8384 52.192C90.1664 52.192 89.5744 52.016 89.0624 51.664C88.561 51.312 88.1717 50.8213 87.8944 50.192C87.617 49.552 87.4784 48.8213 87.4784 48C87.4784 47.168 87.617 46.4373 87.8944 45.808C88.1717 45.1787 88.561 44.688 89.0624 44.336C89.5744 43.984 90.1664 43.808 90.8384 43.808C91.553 43.808 92.1824 43.984 92.7264 44.336C93.2704 44.688 93.6917 45.1787 93.9904 45.808C94.2997 46.4373 94.4544 47.168 94.4544 48C94.4544 48.8213 94.2997 49.552 93.9904 50.192C93.6917 50.8213 93.2704 51.312 92.7264 51.664C92.1824 52.016 91.553 52.192 90.8384 52.192ZM90.5504 51.024C91.0517 51.024 91.4944 50.896 91.8784 50.64C92.273 50.384 92.5824 50.0267 92.8064 49.568C93.041 49.1093 93.1584 48.5867 93.1584 48C93.1584 47.4133 93.0464 46.8907 92.8224 46.432C92.609 45.9733 92.305 45.616 91.9104 45.36C91.5157 45.104 91.0677 44.976 90.5664 44.976C90.097 44.976 89.6757 45.104 89.3024 45.36C88.9397 45.616 88.6517 45.9733 88.4384 46.432C88.2357 46.8907 88.1344 47.4133 88.1344 48C88.1344 48.5867 88.2357 49.1093 88.4384 49.568C88.6517 50.0267 88.9397 50.384 89.3024 50.64C89.665 50.896 90.081 51.024 90.5504 51.024ZM101.157 52L101.093 50.688V47.776C101.093 47.1467 101.024 46.6293 100.885 46.224C100.747 45.808 100.528 45.4933 100.229 45.28C99.9307 45.0667 99.5414 44.96 99.0614 44.96C98.624 44.96 98.2454 45.0507 97.9254 45.232C97.616 45.4027 97.36 45.68 97.1574 46.064L96.0054 45.616C96.208 45.2427 96.4534 44.9227 96.7414 44.656C97.0294 44.3787 97.3654 44.1707 97.7494 44.032C98.1334 43.8827 98.5707 43.808 99.0614 43.808C99.808 43.808 100.421 43.9573 100.901 44.256C101.392 44.544 101.76 44.976 102.005 45.552C102.251 46.1173 102.368 46.8213 102.357 47.664L102.341 52H101.157ZM98.7574 52.192C97.8187 52.192 97.0827 51.9787 96.5494 51.552C96.0267 51.1147 95.7654 50.512 95.7654 49.744C95.7654 48.9333 96.032 48.3147 96.5654 47.888C97.1094 47.4507 97.8667 47.232 98.8374 47.232H101.125V48.304H99.1254C98.3787 48.304 97.8454 48.4267 97.5254 48.672C97.216 48.9173 97.0614 49.2693 97.0614 49.728C97.0614 50.144 97.216 50.4747 97.5254 50.72C97.8347 50.9547 98.2667 51.072 98.8214 51.072C99.28 51.072 99.68 50.976 100.021 50.784C100.363 50.5813 100.624 50.2987 100.805 49.936C100.997 49.5627 101.093 49.1253 101.093 48.624H101.637C101.637 49.712 101.392 50.5813 100.901 51.232C100.411 51.872 99.696 52.192 98.7574 52.192ZM105.09 47.664C105.09 46.8 105.255 46.1013 105.586 45.568C105.916 45.024 106.338 44.624 106.85 44.368C107.372 44.1013 107.922 43.968 108.498 43.968V45.168C108.028 45.168 107.575 45.248 107.138 45.408C106.711 45.5573 106.359 45.808 106.082 46.16C105.804 46.512 105.666 46.992 105.666 47.6L105.09 47.664ZM104.386 52V44H105.666V52H104.386ZM112.592 52.192C112.005 52.192 111.493 52.1067 111.056 51.936C110.619 51.7547 110.251 51.52 109.952 51.232C109.664 50.944 109.456 50.6293 109.328 50.288L110.448 49.824C110.629 50.1867 110.901 50.48 111.264 50.704C111.627 50.928 112.027 51.04 112.464 51.04C112.965 51.04 113.387 50.944 113.728 50.752C114.069 50.5493 114.24 50.2667 114.24 49.904C114.24 49.5733 114.112 49.3067 113.856 49.104C113.611 48.9013 113.243 48.736 112.752 48.608L111.984 48.4C111.259 48.208 110.693 47.92 110.288 47.536C109.883 47.1413 109.68 46.6987 109.68 46.208C109.68 45.4507 109.925 44.864 110.416 44.448C110.917 44.0213 111.659 43.808 112.64 43.808C113.109 43.808 113.536 43.8773 113.92 44.016C114.304 44.1547 114.635 44.352 114.912 44.608C115.189 44.8533 115.392 45.1467 115.52 45.488L114.4 45.984C114.261 45.6213 114.032 45.36 113.712 45.2C113.392 45.04 113.003 44.96 112.544 44.96C112.053 44.96 111.669 45.0667 111.392 45.28C111.115 45.4827 110.976 45.7707 110.976 46.144C110.976 46.3573 111.088 46.56 111.312 46.752C111.547 46.9333 111.888 47.0827 112.336 47.2L113.136 47.408C113.659 47.536 114.096 47.728 114.448 47.984C114.8 48.2293 115.067 48.512 115.248 48.832C115.429 49.152 115.52 49.4933 115.52 49.856C115.52 50.336 115.392 50.752 115.136 51.104C114.88 51.456 114.533 51.728 114.096 51.92C113.659 52.1013 113.157 52.192 112.592 52.192ZM116.765 53.84L117.677 50.464H119.117L117.869 53.84H116.765ZM132.072 52L134.776 44H136.072L133.352 52H132.072ZM126.632 52L129.336 44H130.536L127.864 52H126.632ZM126.568 52L123.848 44H125.144L127.816 52H126.568ZM132.072 52L129.4 44H130.616L133.288 52H132.072ZM140.671 52.192C139.892 52.192 139.204 52.016 138.607 51.664C138.01 51.3013 137.54 50.8053 137.199 50.176C136.868 49.5467 136.703 48.8213 136.703 48C136.703 47.1787 136.868 46.4533 137.199 45.824C137.54 45.1947 138.004 44.704 138.591 44.352C139.188 43.9893 139.871 43.808 140.639 43.808C141.386 43.808 142.031 43.9947 142.575 44.368C143.119 44.7307 143.54 45.2427 143.839 45.904C144.138 46.5653 144.287 47.344 144.287 48.24H137.679L137.999 47.968C137.999 48.608 138.111 49.1573 138.335 49.616C138.57 50.0747 138.895 50.4267 139.311 50.672C139.727 50.9067 140.202 51.024 140.735 51.024C141.3 51.024 141.775 50.8907 142.159 50.624C142.554 50.3573 142.858 50.0053 143.071 49.568L144.175 50.128C143.972 50.544 143.7 50.9067 143.359 51.216C143.028 51.5253 142.634 51.7653 142.175 51.936C141.727 52.1067 141.226 52.192 140.671 52.192ZM138.079 47.424L137.743 47.168H143.263L142.927 47.44C142.927 46.928 142.826 46.4853 142.623 46.112C142.42 45.7387 142.148 45.4507 141.807 45.248C141.466 45.0453 141.071 44.944 140.623 44.944C140.186 44.944 139.77 45.0453 139.375 45.248C138.991 45.4507 138.676 45.7387 138.431 46.112C138.196 46.4747 138.079 46.912 138.079 47.424ZM145.901 52V40.8H147.181V50.512L147.117 52H145.901ZM149.885 52.192C149.213 52.192 148.621 52.016 148.109 51.664C147.608 51.312 147.219 50.8213 146.941 50.192C146.664 49.552 146.525 48.8213 146.525 48C146.525 47.168 146.664 46.4373 146.941 45.808C147.219 45.1787 147.608 44.688 148.109 44.336C148.621 43.984 149.213 43.808 149.885 43.808C150.6 43.808 151.229 43.984 151.773 44.336C152.317 44.688 152.739 45.1787 153.037 45.808C153.347 46.4373 153.501 47.168 153.501 48C153.501 48.8213 153.347 49.552 153.037 50.192C152.739 50.8213 152.317 51.312 151.773 51.664C151.229 52.016 150.6 52.192 149.885 52.192ZM149.597 51.024C150.099 51.024 150.541 50.896 150.925 50.64C151.32 50.384 151.629 50.0267 151.853 49.568C152.088 49.1093 152.205 48.5867 152.205 48C152.205 47.4133 152.093 46.8907 151.869 46.432C151.656 45.9733 151.352 45.616 150.957 45.36C150.563 45.104 150.115 44.976 149.613 44.976C149.144 44.976 148.723 45.104 148.349 45.36C147.987 45.616 147.699 45.9733 147.485 46.432C147.283 46.8907 147.181 47.4133 147.181 48C147.181 48.5867 147.283 49.1093 147.485 49.568C147.699 50.0267 147.987 50.384 148.349 50.64C148.712 50.896 149.128 51.024 149.597 51.024ZM158.076 52.192C157.49 52.192 156.978 52.1067 156.54 51.936C156.103 51.7547 155.735 51.52 155.436 51.232C155.148 50.944 154.94 50.6293 154.812 50.288L155.932 49.824C156.114 50.1867 156.386 50.48 156.748 50.704C157.111 50.928 157.511 51.04 157.948 51.04C158.45 51.04 158.871 50.944 159.212 50.752C159.554 50.5493 159.724 50.2667 159.724 49.904C159.724 49.5733 159.596 49.3067 159.34 49.104C159.095 48.9013 158.727 48.736 158.236 48.608L157.468 48.4C156.743 48.208 156.178 47.92 155.772 47.536C155.367 47.1413 155.164 46.6987 155.164 46.208C155.164 45.4507 155.41 44.864 155.9 44.448C156.402 44.0213 157.143 43.808 158.124 43.808C158.594 43.808 159.02 43.8773 159.404 44.016C159.788 44.1547 160.119 44.352 160.396 44.608C160.674 44.8533 160.876 45.1467 161.004 45.488L159.884 45.984C159.746 45.6213 159.516 45.36 159.196 45.2C158.876 45.04 158.487 44.96 158.028 44.96C157.538 44.96 157.154 45.0667 156.876 45.28C156.599 45.4827 156.46 45.7707 156.46 46.144C156.46 46.3573 156.572 46.56 156.796 46.752C157.031 46.9333 157.372 47.0827 157.82 47.2L158.62 47.408C159.143 47.536 159.58 47.728 159.932 47.984C160.284 48.2293 160.551 48.512 160.732 48.832C160.914 49.152 161.004 49.4933 161.004 49.856C161.004 50.336 160.876 50.752 160.62 51.104C160.364 51.456 160.018 51.728 159.58 51.92C159.143 52.1013 158.642 52.192 158.076 52.192ZM162.809 52V44H164.089V52H162.809ZM163.465 42.144C163.252 42.144 163.065 42.064 162.905 41.904C162.745 41.744 162.665 41.5573 162.665 41.344C162.665 41.12 162.745 40.9333 162.905 40.784C163.065 40.624 163.252 40.544 163.465 40.544C163.689 40.544 163.876 40.624 164.025 40.784C164.185 40.9333 164.265 41.12 164.265 41.344C164.265 41.5573 164.185 41.744 164.025 41.904C163.876 42.064 163.689 42.144 163.465 42.144ZM169.456 52.192C168.677 52.192 168.075 51.9893 167.648 51.584C167.221 51.1787 167.008 50.608 167.008 49.872V41.504H168.288V49.744C168.288 50.1493 168.395 50.464 168.608 50.688C168.832 50.9013 169.141 51.008 169.536 51.008C169.664 51.008 169.787 50.992 169.904 50.96C170.032 50.9173 170.197 50.8213 170.4 50.672L170.896 51.712C170.619 51.8933 170.368 52.016 170.144 52.08C169.92 52.1547 169.691 52.192 169.456 52.192ZM165.616 45.136V44H170.688V45.136H165.616ZM175.952 52.192C175.173 52.192 174.485 52.016 173.888 51.664C173.291 51.3013 172.821 50.8053 172.48 50.176C172.149 49.5467 171.984 48.8213 171.984 48C171.984 47.1787 172.149 46.4533 172.48 45.824C172.821 45.1947 173.285 44.704 173.872 44.352C174.469 43.9893 175.152 43.808 175.92 43.808C176.667 43.808 177.312 43.9947 177.856 44.368C178.4 44.7307 178.821 45.2427 179.12 45.904C179.419 46.5653 179.568 47.344 179.568 48.24H172.96L173.28 47.968C173.28 48.608 173.392 49.1573 173.616 49.616C173.851 50.0747 174.176 50.4267 174.592 50.672C175.008 50.9067 175.483 51.024 176.016 51.024C176.581 51.024 177.056 50.8907 177.44 50.624C177.835 50.3573 178.139 50.0053 178.352 49.568L179.456 50.128C179.253 50.544 178.981 50.9067 178.64 51.216C178.309 51.5253 177.915 51.7653 177.456 51.936C177.008 52.1067 176.507 52.192 175.952 52.192ZM173.36 47.424L173.024 47.168H178.544L178.208 47.44C178.208 46.928 178.107 46.4853 177.904 46.112C177.701 45.7387 177.429 45.4507 177.088 45.248C176.747 45.0453 176.352 44.944 175.904 44.944C175.467 44.944 175.051 45.0453 174.656 45.248C174.272 45.4507 173.957 45.7387 173.712 46.112C173.477 46.4747 173.36 46.912 173.36 47.424ZM185.136 52V44H186.336L186.4 45.12C186.645 44.6933 186.96 44.368 187.344 44.144C187.728 43.92 188.176 43.808 188.688 43.808C189.328 43.808 189.872 43.9573 190.32 44.256C190.778 44.5547 191.109 45.008 191.312 45.616C191.536 45.0293 191.861 44.5813 192.288 44.272C192.725 43.9627 193.242 43.808 193.84 43.808C194.736 43.808 195.44 44.1067 195.952 44.704C196.474 45.3013 196.73 46.208 196.72 47.424V52H195.44V47.904C195.44 47.1147 195.354 46.512 195.184 46.096C195.024 45.68 194.805 45.3973 194.528 45.248C194.25 45.088 193.93 45.008 193.568 45.008C192.938 45.008 192.448 45.2587 192.096 45.76C191.744 46.2507 191.568 46.9493 191.568 47.856V52H190.288V47.904C190.288 47.1147 190.202 46.512 190.032 46.096C189.872 45.68 189.648 45.3973 189.36 45.248C189.082 45.088 188.762 45.008 188.4 45.008C187.781 45.008 187.296 45.2587 186.944 45.76C186.592 46.2507 186.416 46.9493 186.416 47.856V52H185.136ZM203.673 52L203.609 50.688V47.776C203.609 47.1467 203.54 46.6293 203.401 46.224C203.262 45.808 203.044 45.4933 202.745 45.28C202.446 45.0667 202.057 44.96 201.577 44.96C201.14 44.96 200.761 45.0507 200.441 45.232C200.132 45.4027 199.876 45.68 199.673 46.064L198.521 45.616C198.724 45.2427 198.969 44.9227 199.257 44.656C199.545 44.3787 199.881 44.1707 200.265 44.032C200.649 43.8827 201.086 43.808 201.577 43.808C202.324 43.808 202.937 43.9573 203.417 44.256C203.908 44.544 204.276 44.976 204.521 45.552C204.766 46.1173 204.884 46.8213 204.873 47.664L204.857 52H203.673ZM201.273 52.192C200.334 52.192 199.598 51.9787 199.065 51.552C198.542 51.1147 198.281 50.512 198.281 49.744C198.281 48.9333 198.548 48.3147 199.081 47.888C199.625 47.4507 200.382 47.232 201.353 47.232H203.641V48.304H201.641C200.894 48.304 200.361 48.4267 200.041 48.672C199.732 48.9173 199.577 49.2693 199.577 49.728C199.577 50.144 199.732 50.4747 200.041 50.72C200.35 50.9547 200.782 51.072 201.337 51.072C201.796 51.072 202.196 50.976 202.537 50.784C202.878 50.5813 203.14 50.2987 203.321 49.936C203.513 49.5627 203.609 49.1253 203.609 48.624H204.153C204.153 49.712 203.908 50.5813 203.417 51.232C202.926 51.872 202.212 52.192 201.273 52.192ZM209.701 52.192C209.115 52.192 208.603 52.1067 208.165 51.936C207.728 51.7547 207.36 51.52 207.061 51.232C206.773 50.944 206.565 50.6293 206.437 50.288L207.557 49.824C207.739 50.1867 208.011 50.48 208.373 50.704C208.736 50.928 209.136 51.04 209.573 51.04C210.075 51.04 210.496 50.944 210.837 50.752C211.179 50.5493 211.349 50.2667 211.349 49.904C211.349 49.5733 211.221 49.3067 210.965 49.104C210.72 48.9013 210.352 48.736 209.861 48.608L209.093 48.4C208.368 48.208 207.803 47.92 207.397 47.536C206.992 47.1413 206.789 46.6987 206.789 46.208C206.789 45.4507 207.035 44.864 207.525 44.448C208.027 44.0213 208.768 43.808 209.749 43.808C210.219 43.808 210.645 43.8773 211.029 44.016C211.413 44.1547 211.744 44.352 212.021 44.608C212.299 44.8533 212.501 45.1467 212.629 45.488L211.509 45.984C211.371 45.6213 211.141 45.36 210.821 45.2C210.501 45.04 210.112 44.96 209.653 44.96C209.163 44.96 208.779 45.0667 208.501 45.28C208.224 45.4827 208.085 45.7707 208.085 46.144C208.085 46.3573 208.197 46.56 208.421 46.752C208.656 46.9333 208.997 47.0827 209.445 47.2L210.245 47.408C210.768 47.536 211.205 47.728 211.557 47.984C211.909 48.2293 212.176 48.512 212.357 48.832C212.539 49.152 212.629 49.4933 212.629 49.856C212.629 50.336 212.501 50.752 212.245 51.104C211.989 51.456 211.643 51.728 211.205 51.92C210.768 52.1013 210.267 52.192 209.701 52.192ZM217.362 52.192C216.584 52.192 215.981 51.9893 215.554 51.584C215.128 51.1787 214.914 50.608 214.914 49.872V41.504H216.194V49.744C216.194 50.1493 216.301 50.464 216.514 50.688C216.738 50.9013 217.048 51.008 217.442 51.008C217.57 51.008 217.693 50.992 217.81 50.96C217.938 50.9173 218.104 50.8213 218.306 50.672L218.802 51.712C218.525 51.8933 218.274 52.016 218.05 52.08C217.826 52.1547 217.597 52.192 217.362 52.192ZM213.522 45.136V44H218.594V45.136H213.522ZM220.401 52V40.8H221.681V52H220.401ZM226.033 52V47.904H227.313V52H226.033ZM226.033 47.904C226.033 47.1147 225.937 46.512 225.745 46.096C225.564 45.68 225.313 45.3973 224.993 45.248C224.673 45.088 224.311 45.008 223.905 45.008C223.201 45.008 222.652 45.2587 222.257 45.76C221.873 46.2507 221.681 46.9493 221.681 47.856H221.057C221.057 47.0133 221.18 46.288 221.425 45.68C221.681 45.072 222.044 44.608 222.513 44.288C222.983 43.968 223.548 43.808 224.209 43.808C224.828 43.808 225.372 43.936 225.841 44.192C226.311 44.4373 226.673 44.832 226.929 45.376C227.196 45.92 227.324 46.6347 227.313 47.52V47.904H226.033ZM232.827 52.192C232.048 52.192 231.36 52.016 230.763 51.664C230.166 51.3013 229.696 50.8053 229.355 50.176C229.024 49.5467 228.859 48.8213 228.859 48C228.859 47.1787 229.024 46.4533 229.355 45.824C229.696 45.1947 230.16 44.704 230.747 44.352C231.344 43.9893 232.027 43.808 232.795 43.808C233.542 43.808 234.187 43.9947 234.731 44.368C235.275 44.7307 235.696 45.2427 235.995 45.904C236.294 46.5653 236.443 47.344 236.443 48.24H229.835L230.155 47.968C230.155 48.608 230.267 49.1573 230.491 49.616C230.726 50.0747 231.051 50.4267 231.467 50.672C231.883 50.9067 232.358 51.024 232.891 51.024C233.456 51.024 233.931 50.8907 234.315 50.624C234.71 50.3573 235.014 50.0053 235.227 49.568L236.331 50.128C236.128 50.544 235.856 50.9067 235.515 51.216C235.184 51.5253 234.79 51.7653 234.331 51.936C233.883 52.1067 233.382 52.192 232.827 52.192ZM230.235 47.424L229.899 47.168H235.419L235.083 47.44C235.083 46.928 234.982 46.4853 234.779 46.112C234.576 45.7387 234.304 45.4507 233.963 45.248C233.622 45.0453 233.227 44.944 232.779 44.944C232.342 44.944 231.926 45.0453 231.531 45.248C231.147 45.4507 230.832 45.7387 230.587 46.112C230.352 46.4747 230.235 46.912 230.235 47.424ZM242.986 52L242.922 50.688V47.776C242.922 47.1467 242.852 46.6293 242.714 46.224C242.575 45.808 242.356 45.4933 242.058 45.28C241.759 45.0667 241.37 44.96 240.89 44.96C240.452 44.96 240.074 45.0507 239.754 45.232C239.444 45.4027 239.188 45.68 238.986 46.064L237.834 45.616C238.036 45.2427 238.282 44.9227 238.57 44.656C238.858 44.3787 239.194 44.1707 239.578 44.032C239.962 43.8827 240.399 43.808 240.89 43.808C241.636 43.808 242.25 43.9573 242.73 44.256C243.22 44.544 243.588 44.976 243.834 45.552C244.079 46.1173 244.196 46.8213 244.186 47.664L244.17 52H242.986ZM240.586 52.192C239.647 52.192 238.911 51.9787 238.378 51.552C237.855 51.1147 237.594 50.512 237.594 49.744C237.594 48.9333 237.86 48.3147 238.394 47.888C238.938 47.4507 239.695 47.232 240.666 47.232H242.954V48.304H240.954C240.207 48.304 239.674 48.4267 239.354 48.672C239.044 48.9173 238.89 49.2693 238.89 49.728C238.89 50.144 239.044 50.4747 239.354 50.72C239.663 50.9547 240.095 51.072 240.65 51.072C241.108 51.072 241.508 50.976 241.85 50.784C242.191 50.5813 242.452 50.2987 242.634 49.936C242.826 49.5627 242.922 49.1253 242.922 48.624H243.466C243.466 49.712 243.22 50.5813 242.73 51.232C242.239 51.872 241.524 52.192 240.586 52.192ZM252.134 52L252.07 50.512V40.8H253.35V52H252.134ZM249.366 52.192C248.651 52.192 248.022 52.016 247.478 51.664C246.934 51.312 246.507 50.8213 246.198 50.192C245.899 49.552 245.75 48.8213 245.75 48C245.75 47.168 245.899 46.4373 246.198 45.808C246.507 45.1787 246.934 44.688 247.478 44.336C248.022 43.984 248.651 43.808 249.366 43.808C250.038 43.808 250.624 43.984 251.126 44.336C251.638 44.688 252.032 45.1787 252.31 45.808C252.587 46.4373 252.726 47.168 252.726 48C252.726 48.8213 252.587 49.552 252.31 50.192C252.032 50.8213 251.638 51.312 251.126 51.664C250.624 52.016 250.038 52.192 249.366 52.192ZM249.654 51.024C250.123 51.024 250.539 50.896 250.902 50.64C251.264 50.384 251.547 50.0267 251.75 49.568C251.963 49.1093 252.07 48.5867 252.07 48C252.07 47.4133 251.963 46.8907 251.75 46.432C251.547 45.9733 251.264 45.616 250.902 45.36C250.539 45.104 250.118 44.976 249.638 44.976C249.136 44.976 248.688 45.104 248.294 45.36C247.91 45.616 247.606 45.9733 247.382 46.432C247.158 46.8907 247.046 47.4133 247.046 48C247.046 48.5867 247.158 49.1093 247.382 49.568C247.606 50.0267 247.915 50.384 248.31 50.64C248.704 50.896 249.152 51.024 249.654 51.024ZM255.109 53.84L256.021 50.464H257.461L256.213 53.84H255.109ZM263.951 52V43.088C263.951 42.256 264.143 41.632 264.527 41.216C264.922 40.7893 265.519 40.576 266.319 40.576C266.533 40.576 266.773 40.6133 267.039 40.688C267.306 40.7627 267.589 40.8693 267.887 41.008L267.407 42.016C267.162 41.92 266.954 41.8453 266.783 41.792C266.613 41.7387 266.469 41.712 266.351 41.712C265.978 41.712 265.695 41.8347 265.503 42.08C265.322 42.3147 265.231 42.6827 265.231 43.184V52H263.951ZM262.479 45.104V44H267.551V45.104H262.479ZM272.547 52.192C271.768 52.192 271.075 52.016 270.467 51.664C269.869 51.3013 269.4 50.8053 269.059 50.176C268.717 49.5467 268.547 48.8213 268.547 48C268.547 47.1787 268.712 46.4533 269.043 45.824C269.384 45.1947 269.853 44.704 270.451 44.352C271.059 43.9893 271.747 43.808 272.515 43.808C273.304 43.808 273.997 43.9893 274.595 44.352C275.203 44.704 275.672 45.1947 276.003 45.824C276.344 46.4533 276.515 47.1787 276.515 48C276.515 48.8213 276.344 49.5467 276.003 50.176C275.672 50.8053 275.208 51.3013 274.611 51.664C274.013 52.016 273.325 52.192 272.547 52.192ZM272.547 51.008C273.08 51.008 273.544 50.88 273.939 50.624C274.333 50.368 274.643 50.016 274.867 49.568C275.101 49.12 275.219 48.5973 275.219 48C275.219 47.4027 275.101 46.88 274.867 46.432C274.643 45.984 274.328 45.632 273.923 45.376C273.517 45.12 273.048 44.992 272.515 44.992C271.992 44.992 271.528 45.12 271.123 45.376C270.728 45.632 270.413 45.984 270.179 46.432C269.955 46.88 269.843 47.4027 269.843 48C269.843 48.5867 269.955 49.1093 270.179 49.568C270.413 50.016 270.733 50.368 271.139 50.624C271.555 50.88 272.024 51.008 272.547 51.008ZM281.828 52.192C281.049 52.192 280.356 52.016 279.748 51.664C279.151 51.3013 278.681 50.8053 278.34 50.176C277.999 49.5467 277.828 48.8213 277.828 48C277.828 47.1787 277.993 46.4533 278.324 45.824C278.665 45.1947 279.135 44.704 279.732 44.352C280.34 43.9893 281.028 43.808 281.796 43.808C282.585 43.808 283.279 43.9893 283.876 44.352C284.484 44.704 284.953 45.1947 285.284 45.824C285.625 46.4533 285.796 47.1787 285.796 48C285.796 48.8213 285.625 49.5467 285.284 50.176C284.953 50.8053 284.489 51.3013 283.892 51.664C283.295 52.016 282.607 52.192 281.828 52.192ZM281.828 51.008C282.361 51.008 282.825 50.88 283.22 50.624C283.615 50.368 283.924 50.016 284.148 49.568C284.383 49.12 284.5 48.5973 284.5 48C284.5 47.4027 284.383 46.88 284.148 46.432C283.924 45.984 283.609 45.632 283.204 45.376C282.799 45.12 282.329 44.992 281.796 44.992C281.273 44.992 280.809 45.12 280.404 45.376C280.009 45.632 279.695 45.984 279.46 46.432C279.236 46.88 279.124 47.4027 279.124 48C279.124 48.5867 279.236 49.1093 279.46 49.568C279.695 50.016 280.015 50.368 280.42 50.624C280.836 50.88 281.305 51.008 281.828 51.008ZM290.581 52.192C289.802 52.192 289.2 51.9893 288.773 51.584C288.346 51.1787 288.133 50.608 288.133 49.872V41.504H289.413V49.744C289.413 50.1493 289.52 50.464 289.733 50.688C289.957 50.9013 290.266 51.008 290.661 51.008C290.789 51.008 290.912 50.992 291.029 50.96C291.157 50.9173 291.322 50.8213 291.525 50.672L292.021 51.712C291.744 51.8933 291.493 52.016 291.269 52.08C291.045 52.1547 290.816 52.192 290.581 52.192ZM286.741 45.136V44H291.813V45.136H286.741ZM297.077 52.192C296.298 52.192 295.61 52.016 295.013 51.664C294.416 51.3013 293.946 50.8053 293.605 50.176C293.274 49.5467 293.109 48.8213 293.109 48C293.109 47.1787 293.274 46.4533 293.605 45.824C293.946 45.1947 294.41 44.704 294.997 44.352C295.594 43.9893 296.277 43.808 297.045 43.808C297.792 43.808 298.437 43.9947 298.981 44.368C299.525 44.7307 299.946 45.2427 300.245 45.904C300.544 46.5653 300.693 47.344 300.693 48.24H294.085L294.405 47.968C294.405 48.608 294.517 49.1573 294.741 49.616C294.976 50.0747 295.301 50.4267 295.717 50.672C296.133 50.9067 296.608 51.024 297.141 51.024C297.706 51.024 298.181 50.8907 298.565 50.624C298.96 50.3573 299.264 50.0053 299.477 49.568L300.581 50.128C300.378 50.544 300.106 50.9067 299.765 51.216C299.434 51.5253 299.04 51.7653 298.581 51.936C298.133 52.1067 297.632 52.192 297.077 52.192ZM294.485 47.424L294.149 47.168H299.669L299.333 47.44C299.333 46.928 299.232 46.4853 299.029 46.112C298.826 45.7387 298.554 45.4507 298.213 45.248C297.872 45.0453 297.477 44.944 297.029 44.944C296.592 44.944 296.176 45.0453 295.781 45.248C295.397 45.4507 295.082 45.7387 294.837 46.112C294.602 46.4747 294.485 46.912 294.485 47.424ZM303.012 47.664C303.012 46.8 303.177 46.1013 303.508 45.568C303.838 45.024 304.26 44.624 304.772 44.368C305.294 44.1013 305.844 43.968 306.42 43.968V45.168C305.95 45.168 305.497 45.248 305.06 45.408C304.633 45.5573 304.281 45.808 304.004 46.16C303.726 46.512 303.588 46.992 303.588 47.6L303.012 47.664ZM302.308 52V44H303.588V52H302.308ZM307.234 53.84L308.146 50.464H309.586L308.338 53.84H307.234ZM318.78 52.192C318.002 52.192 317.314 52.016 316.716 51.664C316.119 51.3013 315.65 50.8053 315.308 50.176C314.978 49.5467 314.812 48.8213 314.812 48C314.812 47.1787 314.978 46.4533 315.308 45.824C315.65 45.1947 316.114 44.704 316.7 44.352C317.298 43.9893 317.98 43.808 318.748 43.808C319.495 43.808 320.14 43.9947 320.684 44.368C321.228 44.7307 321.65 45.2427 321.948 45.904C322.247 46.5653 322.396 47.344 322.396 48.24H315.788L316.108 47.968C316.108 48.608 316.22 49.1573 316.444 49.616C316.679 50.0747 317.004 50.4267 317.42 50.672C317.836 50.9067 318.311 51.024 318.844 51.024C319.41 51.024 319.884 50.8907 320.268 50.624C320.663 50.3573 320.967 50.0053 321.18 49.568L322.284 50.128C322.082 50.544 321.81 50.9067 321.468 51.216C321.138 51.5253 320.743 51.7653 320.284 51.936C319.836 52.1067 319.335 52.192 318.78 52.192ZM316.188 47.424L315.852 47.168H321.372L321.036 47.44C321.036 46.928 320.935 46.4853 320.732 46.112C320.53 45.7387 320.258 45.4507 319.916 45.248C319.575 45.0453 319.18 44.944 318.732 44.944C318.295 44.944 317.879 45.0453 317.484 45.248C317.1 45.4507 316.786 45.7387 316.54 46.112C316.306 46.4747 316.188 46.912 316.188 47.424ZM324.011 52V44H325.211L325.275 45.12C325.52 44.6933 325.835 44.368 326.219 44.144C326.603 43.92 327.051 43.808 327.563 43.808C328.203 43.808 328.747 43.9573 329.195 44.256C329.653 44.5547 329.984 45.008 330.187 45.616C330.411 45.0293 330.736 44.5813 331.163 44.272C331.6 43.9627 332.117 43.808 332.715 43.808C333.611 43.808 334.315 44.1067 334.827 44.704C335.349 45.3013 335.605 46.208 335.595 47.424V52H334.315V47.904C334.315 47.1147 334.229 46.512 334.059 46.096C333.899 45.68 333.68 45.3973 333.403 45.248C333.125 45.088 332.805 45.008 332.443 45.008C331.813 45.008 331.323 45.2587 330.971 45.76C330.619 46.2507 330.443 46.9493 330.443 47.856V52H329.163V47.904C329.163 47.1147 329.077 46.512 328.907 46.096C328.747 45.68 328.523 45.3973 328.235 45.248C327.957 45.088 327.637 45.008 327.275 45.008C326.656 45.008 326.171 45.2587 325.819 45.76C325.467 46.2507 325.291 46.9493 325.291 47.856V52H324.011ZM342.548 52L342.484 50.688V47.776C342.484 47.1467 342.415 46.6293 342.276 46.224C342.137 45.808 341.919 45.4933 341.62 45.28C341.321 45.0667 340.932 44.96 340.452 44.96C340.015 44.96 339.636 45.0507 339.316 45.232C339.007 45.4027 338.751 45.68 338.548 46.064L337.396 45.616C337.599 45.2427 337.844 44.9227 338.132 44.656C338.42 44.3787 338.756 44.1707 339.14 44.032C339.524 43.8827 339.961 43.808 340.452 43.808C341.199 43.808 341.812 43.9573 342.292 44.256C342.783 44.544 343.151 44.976 343.396 45.552C343.641 46.1173 343.759 46.8213 343.748 47.664L343.732 52H342.548ZM340.148 52.192C339.209 52.192 338.473 51.9787 337.94 51.552C337.417 51.1147 337.156 50.512 337.156 49.744C337.156 48.9333 337.423 48.3147 337.956 47.888C338.5 47.4507 339.257 47.232 340.228 47.232H342.516V48.304H340.516C339.769 48.304 339.236 48.4267 338.916 48.672C338.607 48.9173 338.452 49.2693 338.452 49.728C338.452 50.144 338.607 50.4747 338.916 50.72C339.225 50.9547 339.657 51.072 340.212 51.072C340.671 51.072 341.071 50.976 341.412 50.784C341.753 50.5813 342.015 50.2987 342.196 49.936C342.388 49.5627 342.484 49.1253 342.484 48.624H343.028C343.028 49.712 342.783 50.5813 342.292 51.232C341.801 51.872 341.087 52.192 340.148 52.192ZM345.856 52V44H347.136V52H345.856ZM346.512 42.144C346.299 42.144 346.112 42.064 345.952 41.904C345.792 41.744 345.712 41.5573 345.712 41.344C345.712 41.12 345.792 40.9333 345.952 40.784C346.112 40.624 346.299 40.544 346.512 40.544C346.736 40.544 346.923 40.624 347.072 40.784C347.232 40.9333 347.312 41.12 347.312 41.344C347.312 41.5573 347.232 41.744 347.072 41.904C346.923 42.064 346.736 42.144 346.512 42.144ZM349.495 52V40.8H350.775V52H349.495ZM356.964 52V40.8H358.244V52H356.964ZM362.596 52V47.904H363.876V52H362.596ZM362.596 47.904C362.596 47.1147 362.5 46.512 362.308 46.096C362.126 45.68 361.876 45.3973 361.556 45.248C361.236 45.088 360.873 45.008 360.468 45.008C359.764 45.008 359.214 45.2587 358.82 45.76C358.436 46.2507 358.244 46.9493 358.244 47.856H357.62C357.62 47.0133 357.742 46.288 357.988 45.68C358.244 45.072 358.606 44.608 359.076 44.288C359.545 43.968 360.11 43.808 360.772 43.808C361.39 43.808 361.934 43.936 362.404 44.192C362.873 44.4373 363.236 44.832 363.492 45.376C363.758 45.92 363.886 46.6347 363.876 47.52V47.904H362.596ZM369.39 52.192C368.611 52.192 367.923 52.016 367.326 51.664C366.728 51.3013 366.259 50.8053 365.918 50.176C365.587 49.5467 365.422 48.8213 365.422 48C365.422 47.1787 365.587 46.4533 365.918 45.824C366.259 45.1947 366.723 44.704 367.31 44.352C367.907 43.9893 368.59 43.808 369.358 43.808C370.104 43.808 370.75 43.9947 371.294 44.368C371.838 44.7307 372.259 45.2427 372.558 45.904C372.856 46.5653 373.006 47.344 373.006 48.24H366.398L366.718 47.968C366.718 48.608 366.83 49.1573 367.054 49.616C367.288 50.0747 367.614 50.4267 368.03 50.672C368.446 50.9067 368.92 51.024 369.454 51.024C370.019 51.024 370.494 50.8907 370.878 50.624C371.272 50.3573 371.576 50.0053 371.79 49.568L372.894 50.128C372.691 50.544 372.419 50.9067 372.078 51.216C371.747 51.5253 371.352 51.7653 370.894 51.936C370.446 52.1067 369.944 52.192 369.39 52.192ZM366.798 47.424L366.462 47.168H371.982L371.646 47.44C371.646 46.928 371.544 46.4853 371.342 46.112C371.139 45.7387 370.867 45.4507 370.526 45.248C370.184 45.0453 369.79 44.944 369.342 44.944C368.904 44.944 368.488 45.0453 368.094 45.248C367.71 45.4507 367.395 45.7387 367.15 46.112C366.915 46.4747 366.798 46.912 366.798 47.424ZM379.548 52L379.484 50.688V47.776C379.484 47.1467 379.415 46.6293 379.276 46.224C379.137 45.808 378.919 45.4933 378.62 45.28C378.321 45.0667 377.932 44.96 377.452 44.96C377.015 44.96 376.636 45.0507 376.316 45.232C376.007 45.4027 375.751 45.68 375.548 46.064L374.396 45.616C374.599 45.2427 374.844 44.9227 375.132 44.656C375.42 44.3787 375.756 44.1707 376.14 44.032C376.524 43.8827 376.961 43.808 377.452 43.808C378.199 43.808 378.812 43.9573 379.292 44.256C379.783 44.544 380.151 44.976 380.396 45.552C380.641 46.1173 380.759 46.8213 380.748 47.664L380.732 52H379.548ZM377.148 52.192C376.209 52.192 375.473 51.9787 374.94 51.552C374.417 51.1147 374.156 50.512 374.156 49.744C374.156 48.9333 374.423 48.3147 374.956 47.888C375.5 47.4507 376.257 47.232 377.228 47.232H379.516V48.304H377.516C376.769 48.304 376.236 48.4267 375.916 48.672C375.607 48.9173 375.452 49.2693 375.452 49.728C375.452 50.144 375.607 50.4747 375.916 50.72C376.225 50.9547 376.657 51.072 377.212 51.072C377.671 51.072 378.071 50.976 378.412 50.784C378.753 50.5813 379.015 50.2987 379.196 49.936C379.388 49.5627 379.484 49.1253 379.484 48.624H380.028C380.028 49.712 379.783 50.5813 379.292 51.232C378.801 51.872 378.087 52.192 377.148 52.192ZM388.696 52L388.632 50.512V40.8H389.912V52H388.696ZM385.928 52.192C385.214 52.192 384.584 52.016 384.04 51.664C383.496 51.312 383.07 50.8213 382.76 50.192C382.462 49.552 382.312 48.8213 382.312 48C382.312 47.168 382.462 46.4373 382.76 45.808C383.07 45.1787 383.496 44.688 384.04 44.336C384.584 43.984 385.214 43.808 385.928 43.808C386.6 43.808 387.187 43.984 387.688 44.336C388.2 44.688 388.595 45.1787 388.872 45.808C389.15 46.4373 389.288 47.168 389.288 48C389.288 48.8213 389.15 49.552 388.872 50.192C388.595 50.8213 388.2 51.312 387.688 51.664C387.187 52.016 386.6 52.192 385.928 52.192ZM386.216 51.024C386.686 51.024 387.102 50.896 387.464 50.64C387.827 50.384 388.11 50.0267 388.312 49.568C388.526 49.1093 388.632 48.5867 388.632 48C388.632 47.4133 388.526 46.8907 388.312 46.432C388.11 45.9733 387.827 45.616 387.464 45.36C387.102 45.104 386.68 44.976 386.2 44.976C385.699 44.976 385.251 45.104 384.856 45.36C384.472 45.616 384.168 45.9733 383.944 46.432C383.72 46.8907 383.608 47.4133 383.608 48C383.608 48.5867 383.72 49.1093 383.944 49.568C384.168 50.0267 384.478 50.384 384.872 50.64C385.267 50.896 385.715 51.024 386.216 51.024ZM392.231 52V44H393.511V52H392.231ZM392.887 42.144C392.674 42.144 392.487 42.064 392.327 41.904C392.167 41.744 392.087 41.5573 392.087 41.344C392.087 41.12 392.167 40.9333 392.327 40.784C392.487 40.624 392.674 40.544 392.887 40.544C393.111 40.544 393.298 40.624 393.447 40.784C393.607 40.9333 393.687 41.12 393.687 41.344C393.687 41.5573 393.607 41.744 393.447 41.904C393.298 42.064 393.111 42.144 392.887 42.144ZM395.87 52V44H397.07L397.15 45.472V52H395.87ZM401.486 52V47.904H402.766V52H401.486ZM401.486 47.904C401.486 47.1147 401.395 46.512 401.214 46.096C401.033 45.68 400.782 45.3973 400.462 45.248C400.142 45.088 399.779 45.008 399.374 45.008C398.67 45.008 398.121 45.2587 397.726 45.76C397.342 46.2507 397.15 46.9493 397.15 47.856H396.526C396.526 47.0133 396.649 46.288 396.894 45.68C397.139 45.072 397.497 44.608 397.966 44.288C398.435 43.968 399.001 43.808 399.662 43.808C400.291 43.808 400.835 43.936 401.294 44.192C401.763 44.4373 402.126 44.832 402.382 45.376C402.649 45.92 402.777 46.6347 402.766 47.52V47.904H401.486ZM407.992 55.392C407.48 55.392 407.011 55.3387 406.584 55.232C406.168 55.136 405.811 55.024 405.512 54.896C405.224 54.7787 405.016 54.6773 404.888 54.592L405.368 53.552C405.507 53.6267 405.704 53.7173 405.96 53.824C406.216 53.9413 406.515 54.0373 406.856 54.112C407.208 54.1973 407.581 54.24 407.976 54.24C408.488 54.24 408.947 54.1333 409.352 53.92C409.768 53.7173 410.088 53.392 410.312 52.944C410.547 52.5067 410.664 51.9413 410.664 51.248V44H411.944V51.232C411.944 52.1493 411.773 52.9173 411.432 53.536C411.091 54.1547 410.621 54.6187 410.024 54.928C409.427 55.2373 408.749 55.392 407.992 55.392ZM407.944 51.936C407.229 51.936 406.6 51.7653 406.056 51.424C405.512 51.0827 405.085 50.608 404.776 50C404.477 49.3813 404.328 48.6773 404.328 47.888C404.328 47.0773 404.477 46.368 404.776 45.76C405.085 45.1413 405.512 44.6613 406.056 44.32C406.6 43.9787 407.229 43.808 407.944 43.808C408.616 43.808 409.203 43.9787 409.704 44.32C410.205 44.6613 410.595 45.1413 410.872 45.76C411.16 46.368 411.304 47.0773 411.304 47.888C411.304 48.688 411.16 49.392 410.872 50C410.595 50.608 410.205 51.0827 409.704 51.424C409.203 51.7653 408.616 51.936 407.944 51.936ZM408.248 50.832C408.717 50.832 409.133 50.704 409.496 50.448C409.859 50.192 410.141 49.8453 410.344 49.408C410.547 48.96 410.648 48.4427 410.648 47.856C410.648 47.2907 410.541 46.7893 410.328 46.352C410.125 45.904 409.843 45.5573 409.48 45.312C409.128 45.056 408.712 44.928 408.232 44.928C407.731 44.928 407.283 45.056 406.888 45.312C406.504 45.5573 406.2 45.904 405.976 46.352C405.763 46.7893 405.656 47.2907 405.656 47.856C405.656 48.4427 405.768 48.96 405.992 49.408C406.216 49.8453 406.52 50.192 406.904 50.448C407.299 50.704 407.747 50.832 408.248 50.832ZM413.703 53.84L414.615 50.464H416.055L414.807 53.84H413.703ZM421.825 55.2V44H423.025L423.105 45.472V55.2H421.825ZM425.809 52.192C425.137 52.192 424.545 52.016 424.033 51.664C423.532 51.312 423.142 50.8213 422.865 50.192C422.588 49.552 422.449 48.8213 422.449 48C422.449 47.168 422.588 46.4373 422.865 45.808C423.142 45.1787 423.532 44.688 424.033 44.336C424.545 43.984 425.137 43.808 425.809 43.808C426.524 43.808 427.153 43.984 427.697 44.336C428.241 44.688 428.662 45.1787 428.961 45.808C429.27 46.4373 429.425 47.168 429.425 48C429.425 48.8213 429.27 49.552 428.961 50.192C428.662 50.8213 428.241 51.312 427.697 51.664C427.153 52.016 426.524 52.192 425.809 52.192ZM425.521 51.024C426.022 51.024 426.465 50.896 426.849 50.64C427.244 50.384 427.553 50.0267 427.777 49.568C428.012 49.1093 428.129 48.5867 428.129 48C428.129 47.4133 428.017 46.8907 427.793 46.432C427.58 45.9733 427.276 45.616 426.881 45.36C426.486 45.104 426.038 44.976 425.537 44.976C425.068 44.976 424.646 45.104 424.273 45.36C423.91 45.616 423.622 45.9733 423.409 46.432C423.206 46.8907 423.105 47.4133 423.105 48C423.105 48.5867 423.206 49.1093 423.409 49.568C423.622 50.0267 423.91 50.384 424.273 50.64C424.636 50.896 425.052 51.024 425.521 51.024ZM434.734 52.192C433.955 52.192 433.262 52.016 432.654 51.664C432.057 51.3013 431.587 50.8053 431.246 50.176C430.905 49.5467 430.734 48.8213 430.734 48C430.734 47.1787 430.899 46.4533 431.23 45.824C431.571 45.1947 432.041 44.704 432.638 44.352C433.246 43.9893 433.934 43.808 434.702 43.808C435.491 43.808 436.185 43.9893 436.782 44.352C437.39 44.704 437.859 45.1947 438.19 45.824C438.531 46.4533 438.702 47.1787 438.702 48C438.702 48.8213 438.531 49.5467 438.19 50.176C437.859 50.8053 437.395 51.3013 436.798 51.664C436.201 52.016 435.513 52.192 434.734 52.192ZM434.734 51.008C435.267 51.008 435.731 50.88 436.126 50.624C436.521 50.368 436.83 50.016 437.054 49.568C437.289 49.12 437.406 48.5973 437.406 48C437.406 47.4027 437.289 46.88 437.054 46.432C436.83 45.984 436.515 45.632 436.11 45.376C435.705 45.12 435.235 44.992 434.702 44.992C434.179 44.992 433.715 45.12 433.31 45.376C432.915 45.632 432.601 45.984 432.366 46.432C432.142 46.88 432.03 47.4027 432.03 48C432.03 48.5867 432.142 49.1093 432.366 49.568C432.601 50.016 432.921 50.368 433.326 50.624C433.742 50.88 434.211 51.008 434.734 51.008ZM447.54 52L450.244 44H451.54L448.82 52H447.54ZM442.1 52L444.804 44H446.004L443.332 52H442.1ZM442.036 52L439.316 44H440.612L443.284 52H442.036ZM447.54 52L444.868 44H446.084L448.756 52H447.54ZM456.14 52.192C455.361 52.192 454.673 52.016 454.076 51.664C453.478 51.3013 453.009 50.8053 452.668 50.176C452.337 49.5467 452.172 48.8213 452.172 48C452.172 47.1787 452.337 46.4533 452.668 45.824C453.009 45.1947 453.473 44.704 454.06 44.352C454.657 43.9893 455.34 43.808 456.108 43.808C456.854 43.808 457.5 43.9947 458.044 44.368C458.588 44.7307 459.009 45.2427 459.308 45.904C459.606 46.5653 459.756 47.344 459.756 48.24H453.148L453.468 47.968C453.468 48.608 453.58 49.1573 453.804 49.616C454.038 50.0747 454.364 50.4267 454.78 50.672C455.196 50.9067 455.67 51.024 456.204 51.024C456.769 51.024 457.244 50.8907 457.628 50.624C458.022 50.3573 458.326 50.0053 458.54 49.568L459.644 50.128C459.441 50.544 459.169 50.9067 458.828 51.216C458.497 51.5253 458.102 51.7653 457.644 51.936C457.196 52.1067 456.694 52.192 456.14 52.192ZM453.548 47.424L453.212 47.168H458.732L458.396 47.44C458.396 46.928 458.294 46.4853 458.092 46.112C457.889 45.7387 457.617 45.4507 457.276 45.248C456.934 45.0453 456.54 44.944 456.092 44.944C455.654 44.944 455.238 45.0453 454.844 45.248C454.46 45.4507 454.145 45.7387 453.9 46.112C453.665 46.4747 453.548 46.912 453.548 47.424ZM462.074 47.664C462.074 46.8 462.239 46.1013 462.57 45.568C462.901 45.024 463.322 44.624 463.834 44.368C464.357 44.1013 464.906 43.968 465.482 43.968V45.168C465.013 45.168 464.559 45.248 464.122 45.408C463.695 45.5573 463.343 45.808 463.066 46.16C462.789 46.512 462.65 46.992 462.65 47.6L462.074 47.664ZM461.37 52V44H462.65V52H461.37ZM466.856 55.2V44H468.056L468.136 45.472V55.2H466.856ZM470.84 52.192C470.168 52.192 469.576 52.016 469.064 51.664C468.563 51.312 468.174 50.8213 467.896 50.192C467.619 49.552 467.48 48.8213 467.48 48C467.48 47.168 467.619 46.4373 467.896 45.808C468.174 45.1787 468.563 44.688 469.064 44.336C469.576 43.984 470.168 43.808 470.84 43.808C471.555 43.808 472.184 43.984 472.728 44.336C473.272 44.688 473.694 45.1787 473.992 45.808C474.302 46.4373 474.456 47.168 474.456 48C474.456 48.8213 474.302 49.552 473.992 50.192C473.694 50.8213 473.272 51.312 472.728 51.664C472.184 52.016 471.555 52.192 470.84 52.192ZM470.552 51.024C471.054 51.024 471.496 50.896 471.88 50.64C472.275 50.384 472.584 50.0267 472.808 49.568C473.043 49.1093 473.16 48.5867 473.16 48C473.16 47.4133 473.048 46.8907 472.824 46.432C472.611 45.9733 472.307 45.616 471.912 45.36C471.518 45.104 471.07 44.976 470.568 44.976C470.099 44.976 469.678 45.104 469.304 45.36C468.942 45.616 468.654 45.9733 468.44 46.432C468.238 46.8907 468.136 47.4133 468.136 48C468.136 48.5867 468.238 49.1093 468.44 49.568C468.654 50.0267 468.942 50.384 469.304 50.64C469.667 50.896 470.083 51.024 470.552 51.024ZM479.765 52.192C478.987 52.192 478.293 52.016 477.685 51.664C477.088 51.3013 476.619 50.8053 476.277 50.176C475.936 49.5467 475.765 48.8213 475.765 48C475.765 47.1787 475.931 46.4533 476.261 45.824C476.603 45.1947 477.072 44.704 477.669 44.352C478.277 43.9893 478.965 43.808 479.733 43.808C480.523 43.808 481.216 43.9893 481.813 44.352C482.421 44.704 482.891 45.1947 483.221 45.824C483.563 46.4533 483.733 47.1787 483.733 48C483.733 48.8213 483.563 49.5467 483.221 50.176C482.891 50.8053 482.427 51.3013 481.829 51.664C481.232 52.016 480.544 52.192 479.765 52.192ZM479.765 51.008C480.299 51.008 480.763 50.88 481.157 50.624C481.552 50.368 481.861 50.016 482.085 49.568C482.32 49.12 482.437 48.5973 482.437 48C482.437 47.4027 482.32 46.88 482.085 46.432C481.861 45.984 481.547 45.632 481.141 45.376C480.736 45.12 480.267 44.992 479.733 44.992C479.211 44.992 478.747 45.12 478.341 45.376C477.947 45.632 477.632 45.984 477.397 46.432C477.173 46.88 477.061 47.4027 477.061 48C477.061 48.5867 477.173 49.1093 477.397 49.568C477.632 50.016 477.952 50.368 478.357 50.624C478.773 50.88 479.243 51.008 479.765 51.008ZM485.591 52V44H486.871V52H485.591ZM486.247 42.144C486.033 42.144 485.847 42.064 485.687 41.904C485.527 41.744 485.447 41.5573 485.447 41.344C485.447 41.12 485.527 40.9333 485.687 40.784C485.847 40.624 486.033 40.544 486.247 40.544C486.471 40.544 486.657 40.624 486.807 40.784C486.967 40.9333 487.047 41.12 487.047 41.344C487.047 41.5573 486.967 41.744 486.807 41.904C486.657 42.064 486.471 42.144 486.247 42.144ZM489.229 52V44H490.429L490.509 45.472V52H489.229ZM494.845 52V47.904H496.125V52H494.845ZM494.845 47.904C494.845 47.1147 494.755 46.512 494.573 46.096C494.392 45.68 494.141 45.3973 493.821 45.248C493.501 45.088 493.139 45.008 492.733 45.008C492.029 45.008 491.48 45.2587 491.085 45.76C490.701 46.2507 490.509 46.9493 490.509 47.856H489.885C489.885 47.0133 490.008 46.288 490.253 45.68C490.499 45.072 490.856 44.608 491.325 44.288C491.795 43.968 492.36 43.808 493.021 43.808C493.651 43.808 494.195 43.936 494.653 44.192C495.123 44.4373 495.485 44.832 495.741 45.376C496.008 45.92 496.136 46.6347 496.125 47.52V47.904H494.845ZM501.159 52.192C500.381 52.192 499.778 51.9893 499.351 51.584C498.925 51.1787 498.711 50.608 498.711 49.872V41.504H499.991V49.744C499.991 50.1493 500.098 50.464 500.311 50.688C500.535 50.9013 500.845 51.008 501.239 51.008C501.367 51.008 501.49 50.992 501.607 50.96C501.735 50.9173 501.901 50.8213 502.103 50.672L502.599 51.712C502.322 51.8933 502.071 52.016 501.847 52.08C501.623 52.1547 501.394 52.192 501.159 52.192ZM497.319 45.136V44H502.391V45.136H497.319ZM510.951 52.192C510.365 52.192 509.853 52.1067 509.415 51.936C508.978 51.7547 508.61 51.52 508.311 51.232C508.023 50.944 507.815 50.6293 507.687 50.288L508.807 49.824C508.989 50.1867 509.261 50.48 509.623 50.704C509.986 50.928 510.386 51.04 510.823 51.04C511.325 51.04 511.746 50.944 512.087 50.752C512.429 50.5493 512.599 50.2667 512.599 49.904C512.599 49.5733 512.471 49.3067 512.215 49.104C511.97 48.9013 511.602 48.736 511.111 48.608L510.343 48.4C509.618 48.208 509.053 47.92 508.647 47.536C508.242 47.1413 508.039 46.6987 508.039 46.208C508.039 45.4507 508.285 44.864 508.775 44.448C509.277 44.0213 510.018 43.808 510.999 43.808C511.469 43.808 511.895 43.8773 512.279 44.016C512.663 44.1547 512.994 44.352 513.271 44.608C513.549 44.8533 513.751 45.1467 513.879 45.488L512.759 45.984C512.621 45.6213 512.391 45.36 512.071 45.2C511.751 45.04 511.362 44.96 510.903 44.96C510.413 44.96 510.029 45.0667 509.751 45.28C509.474 45.4827 509.335 45.7707 509.335 46.144C509.335 46.3573 509.447 46.56 509.671 46.752C509.906 46.9333 510.247 47.0827 510.695 47.2L511.495 47.408C512.018 47.536 512.455 47.728 512.807 47.984C513.159 48.2293 513.426 48.512 513.607 48.832C513.789 49.152 513.879 49.4933 513.879 49.856C513.879 50.336 513.751 50.752 513.495 51.104C513.239 51.456 512.893 51.728 512.455 51.92C512.018 52.1013 511.517 52.192 510.951 52.192ZM515.604 52V40.8H516.884V52H515.604ZM519.2 52V44H520.48V52H519.2ZM519.856 42.144C519.643 42.144 519.456 42.064 519.296 41.904C519.136 41.744 519.056 41.5573 519.056 41.344C519.056 41.12 519.136 40.9333 519.296 40.784C519.456 40.624 519.643 40.544 519.856 40.544C520.08 40.544 520.267 40.624 520.416 40.784C520.576 40.9333 520.656 41.12 520.656 41.344C520.656 41.5573 520.576 41.744 520.416 41.904C520.267 42.064 520.08 42.144 519.856 42.144ZM528.759 52L528.695 50.512V40.8H529.975V52H528.759ZM525.991 52.192C525.276 52.192 524.647 52.016 524.103 51.664C523.559 51.312 523.132 50.8213 522.823 50.192C522.524 49.552 522.375 48.8213 522.375 48C522.375 47.168 522.524 46.4373 522.823 45.808C523.132 45.1787 523.559 44.688 524.103 44.336C524.647 43.984 525.276 43.808 525.991 43.808C526.663 43.808 527.249 43.984 527.751 44.336C528.263 44.688 528.657 45.1787 528.935 45.808C529.212 46.4373 529.351 47.168 529.351 48C529.351 48.8213 529.212 49.552 528.935 50.192C528.657 50.8213 528.263 51.312 527.751 51.664C527.249 52.016 526.663 52.192 525.991 52.192ZM526.279 51.024C526.748 51.024 527.164 50.896 527.527 50.64C527.889 50.384 528.172 50.0267 528.375 49.568C528.588 49.1093 528.695 48.5867 528.695 48C528.695 47.4133 528.588 46.8907 528.375 46.432C528.172 45.9733 527.889 45.616 527.527 45.36C527.164 45.104 526.743 44.976 526.263 44.976C525.761 44.976 525.313 45.104 524.919 45.36C524.535 45.616 524.231 45.9733 524.007 46.432C523.783 46.8907 523.671 47.4133 523.671 48C523.671 48.5867 523.783 49.1093 524.007 49.568C524.231 50.0267 524.54 50.384 524.935 50.64C525.329 50.896 525.777 51.024 526.279 51.024ZM535.718 52.192C534.939 52.192 534.251 52.016 533.654 51.664C533.056 51.3013 532.587 50.8053 532.246 50.176C531.915 49.5467 531.75 48.8213 531.75 48C531.75 47.1787 531.915 46.4533 532.246 45.824C532.587 45.1947 533.051 44.704 533.638 44.352C534.235 43.9893 534.918 43.808 535.686 43.808C536.432 43.808 537.078 43.9947 537.622 44.368C538.166 44.7307 538.587 45.2427 538.886 45.904C539.184 46.5653 539.334 47.344 539.334 48.24H532.726L533.046 47.968C533.046 48.608 533.158 49.1573 533.382 49.616C533.616 50.0747 533.942 50.4267 534.358 50.672C534.774 50.9067 535.248 51.024 535.782 51.024C536.347 51.024 536.822 50.8907 537.206 50.624C537.6 50.3573 537.904 50.0053 538.118 49.568L539.222 50.128C539.019 50.544 538.747 50.9067 538.406 51.216C538.075 51.5253 537.68 51.7653 537.222 51.936C536.774 52.1067 536.272 52.192 535.718 52.192ZM533.126 47.424L532.79 47.168H538.31L537.974 47.44C537.974 46.928 537.872 46.4853 537.67 46.112C537.467 45.7387 537.195 45.4507 536.854 45.248C536.512 45.0453 536.118 44.944 535.67 44.944C535.232 44.944 534.816 45.0453 534.422 45.248C534.038 45.4507 533.723 45.7387 533.478 46.112C533.243 46.4747 533.126 46.912 533.126 47.424ZM543.748 52.192C543.161 52.192 542.649 52.1067 542.212 51.936C541.775 51.7547 541.407 51.52 541.108 51.232C540.82 50.944 540.612 50.6293 540.484 50.288L541.604 49.824C541.785 50.1867 542.057 50.48 542.42 50.704C542.783 50.928 543.183 51.04 543.62 51.04C544.121 51.04 544.543 50.944 544.884 50.752C545.225 50.5493 545.396 50.2667 545.396 49.904C545.396 49.5733 545.268 49.3067 545.012 49.104C544.767 48.9013 544.399 48.736 543.908 48.608L543.14 48.4C542.415 48.208 541.849 47.92 541.444 47.536C541.039 47.1413 540.836 46.6987 540.836 46.208C540.836 45.4507 541.081 44.864 541.572 44.448C542.073 44.0213 542.815 43.808 543.796 43.808C544.265 43.808 544.692 43.8773 545.076 44.016C545.46 44.1547 545.791 44.352 546.068 44.608C546.345 44.8533 546.548 45.1467 546.676 45.488L545.556 45.984C545.417 45.6213 545.188 45.36 544.868 45.2C544.548 45.04 544.159 44.96 543.7 44.96C543.209 44.96 542.825 45.0667 542.548 45.28C542.271 45.4827 542.132 45.7707 542.132 46.144C542.132 46.3573 542.244 46.56 542.468 46.752C542.703 46.9333 543.044 47.0827 543.492 47.2L544.292 47.408C544.815 47.536 545.252 47.728 545.604 47.984C545.956 48.2293 546.223 48.512 546.404 48.832C546.585 49.152 546.676 49.4933 546.676 49.856C546.676 50.336 546.548 50.752 546.292 51.104C546.036 51.456 545.689 51.728 545.252 51.92C544.815 52.1013 544.313 52.192 543.748 52.192ZM548.945 52.224C548.7 52.224 548.487 52.1387 548.305 51.968C548.135 51.7867 548.049 51.5787 548.049 51.344C548.049 51.0987 548.135 50.8907 548.305 50.72C548.487 50.5387 548.7 50.448 548.945 50.448C549.191 50.448 549.399 50.5387 549.569 50.72C549.74 50.8907 549.825 51.0987 549.825 51.344C549.825 51.5787 549.74 51.7867 549.569 51.968C549.399 52.1387 549.191 52.224 548.945 52.224Z" fill="#707174"/>
<g clip-path="url(#clip0_3722_697)">
<path fill-rule="evenodd" clip-rule="evenodd" d="M250.084 147.764L254.938 141.52H250.65L245.778 147.764H250.084Z" fill="#1FD053"/>
<path fill-rule="evenodd" clip-rule="evenodd" d="M245.778 147.764L240.924 141.52H245.212L247.931 145.001L245.783 147.764H245.778Z" fill="#038AD3"/>
<path d="M228.709 154H220.525V141.52H228.744C230.247 141.52 231.498 141.916 232.357 142.67C233.267 143.467 233.729 144.618 233.729 146.086V149.429C233.729 150.902 233.267 152.048 232.352 152.845C231.489 153.599 230.23 153.996 228.709 153.996V154ZM223.51 151.359H228.709C230.021 151.359 230.744 150.675 230.744 149.429V146.086C230.744 144.862 230.017 144.156 228.744 144.156H223.51V151.359Z" fill="#038AD3"/>
<path d="M239.041 154H235.769V141.52H239.041V154Z" fill="#038AD3"/>
<path fill-rule="evenodd" clip-rule="evenodd" d="M254.938 153.996H250.637L245.778 147.76H250.079L254.938 153.996Z" fill="#038AD3"/>
<path fill-rule="evenodd" clip-rule="evenodd" d="M245.778 147.764L240.915 154H245.225L247.931 150.527L245.778 147.764Z" fill="#1FD053"/>
<path d="M32.6827 106.366H54.5627C54.9375 106.366 55.2381 106.671 55.2381 107.042V112.497C55.2381 112.872 54.9331 113.173 54.5627 113.173H32.6827V106.366Z" fill="#1FD053"/>
<path d="M32.6827 128.137H57.4431C57.8179 128.137 58.1186 128.442 58.1186 128.812V134.268C58.1186 134.643 57.8135 134.944 57.4431 134.944H32.6827V128.133V128.137Z" fill="#1FD053"/>
<path d="M32.6827 117.199H49.5731C49.9479 117.199 50.2486 117.504 50.2486 117.875V123.435C50.2486 123.81 49.9435 124.111 49.5731 124.111H32.6827V117.195V117.199Z" fill="#1FD053"/>
<path d="M148.484 134.931H144.837L139.777 124.076C139.49 124.084 139.202 124.084 138.906 124.084H124.813V134.926H121.597V106.388H138.906C144.736 106.388 147.948 109.53 147.948 115.238C147.948 119.33 146.201 122.202 143.002 123.413L148.484 134.931ZM125.066 121.065H138.867C143.455 121.065 144.667 118.515 144.693 115.334C144.723 111.377 142.762 109.373 138.867 109.373H125.066C124.926 109.373 124.813 109.486 124.813 109.626V120.812C124.813 120.951 124.926 121.065 125.066 121.065Z" fill="#038AD3"/>
<path d="M173.698 134.931H151.63V106.388H173.698V109.373H154.851V119.13H169.732V122.154H154.851V131.911H173.698V134.935V134.931Z" fill="#038AD3"/>
<path d="M201.835 134.931H199.116L180.339 112.38V134.931H177.123V106.388H179.881L198.619 128.935V106.388H201.835V134.931Z" fill="#038AD3"/>
<path d="M219.07 134.931H215.854V109.373H204.55V106.388H230.125V109.373H219.07V134.931Z" fill="#038AD3"/>
<path d="M242.501 135.319C235.568 135.319 231.751 132.177 231.751 126.468V125.557H235.071V126.468C235.071 130.333 237.573 132.294 242.501 132.294C247.43 132.294 249.888 130.582 249.888 127.205C249.888 124.677 248.367 123.161 245.234 122.568L239.464 121.522C234.631 120.633 232.078 118.005 232.078 113.922C232.078 110.963 233.442 106 242.58 106C251.195 106 252.999 110.811 252.999 114.85V115.761H249.678V114.85C249.678 110.902 247.356 108.985 242.575 108.985C237.795 108.985 235.472 110.606 235.472 113.805C235.472 116.371 236.993 117.888 240.122 118.441L245.896 119.487C250.798 120.415 253.282 122.973 253.282 127.087C253.282 132.316 249.352 135.319 242.493 135.319H242.501Z" fill="#038AD3"/>
<path d="M95.2897 106.366H101.617V129.436H117.963V134.948H95.2853V106.366H95.2897Z" fill="#038AD3"/>
<path d="M204.053 154H200.593L198.319 149.542H194.035V154H191.05V141.515H199.469C202.297 141.515 203.792 142.966 203.792 145.716C203.792 147.616 203.103 148.893 201.739 149.516L204.058 153.996L204.053 154ZM194.031 147.289L199.378 147.302C200.314 147.302 200.711 146.832 200.711 145.72C200.711 144.609 200.31 144.156 199.373 144.156H194.026V147.289H194.031Z" fill="#038AD3"/>
<path d="M209.618 151.42L208.734 154H205.321L209.993 141.515H214.146L218.961 153.996H215.549L214.516 151.416H209.614L209.618 151.42ZM210.485 148.945H213.802L212.416 145.215H211.78L210.485 148.945Z" fill="#038AD3"/>
<path d="M29.811 134.944H21.88L16.6638 124.734H6.84594V134.948H0V106.349H19.2959C25.7758 106.349 29.2009 109.678 29.2009 115.975C29.2009 120.332 27.6191 123.256 24.499 124.677L29.8153 134.939L29.811 134.944ZM6.84594 119.274C6.84594 119.435 6.97667 119.566 7.1379 119.566L19.0954 119.596C21.235 119.596 22.1545 118.511 22.1545 115.975C22.1545 113.439 21.2394 112.393 19.0911 112.393L7.1379 112.406C6.97667 112.406 6.84594 112.537 6.84594 112.698V119.274Z" fill="#038AD3"/>
<path d="M70.9825 129.035L68.9561 134.948H61.1384L71.8409 106.349H81.3581L92.3962 134.944H84.5785L82.2123 129.039H70.9781L70.9825 129.035ZM72.9696 123.37H80.5694L77.4667 115.02C77.4231 114.907 77.3142 114.829 77.1922 114.829H76.1463C76.02 114.829 75.911 114.912 75.8675 115.029L72.9696 123.374V123.37Z" fill="#038AD3"/>
<path d="M177.541 144.073C177.925 143.681 178.435 143.459 178.936 143.459C180.06 143.459 180.705 144.204 180.705 145.437C180.705 146.871 179.742 148.81 177.955 148.81C177.271 148.81 176.739 148.457 176.561 147.877H176.539L176.338 148.692H175.223L177.01 141.541H178.156L177.524 144.073H177.546H177.541ZM176.896 146.666C176.896 147.459 177.227 147.93 177.842 147.93C178.927 147.93 179.489 146.596 179.489 145.611C179.489 144.827 179.149 144.356 178.543 144.356C177.458 144.356 176.896 145.681 176.896 146.666Z" fill="#038AD3"/>
<path d="M183.184 148.915C182.391 150.2 181.746 150.601 180.613 150.601C180.361 150.601 180.143 150.562 179.981 150.501L180.204 149.599C180.334 149.638 180.496 149.668 180.674 149.668C181.289 149.668 181.62 149.429 182.038 148.736L181.446 143.594H182.57L182.932 147.389H182.953L185.185 143.594H186.47L183.189 148.915H183.184Z" fill="#038AD3"/>
</g>
<defs>
<clipPath id="clip0_3722_697">
<rect width="254.938" height="48" fill="white" transform="translate(0 106)"/>
</clipPath>
</defs>
</svg>
