<svg width="1920" height="68" viewBox="0 0 1920 68" fill="none" xmlns="http://www.w3.org/2000/svg">
<g filter="url(#filter0_dd_915_11182)">
<mask id="path-1-inside-1_915_11182" fill="white">
<path d="M0 0H1920V64H0V0Z"/>
</mask>
<path d="M0 0H1920V64H0V0Z" fill="white"/>
<path d="M1920 63H0V65H1920V63Z" fill="#D8DCE3" mask="url(#path-1-inside-1_915_11182)"/>
<path d="M25.5 24.125C25.5 23.5039 26.0039 23 26.625 23H45.375C45.9984 23 46.5 23.5039 46.5 24.125C46.5 24.7484 45.9984 25.25 45.375 25.25H26.625C26.0039 25.25 25.5 24.7484 25.5 24.125ZM25.5 31.625C25.5 31.0016 26.0039 30.5 26.625 30.5H45.375C45.9984 30.5 46.5 31.0016 46.5 31.625C46.5 32.2484 45.9984 32.75 45.375 32.75H26.625C26.0039 32.75 25.5 32.2484 25.5 31.625ZM45.375 40.25H26.625C26.0039 40.25 25.5 39.7484 25.5 39.125C25.5 38.5016 26.0039 38 26.625 38H45.375C45.9984 38 46.5 38.5016 46.5 39.125C46.5 39.7484 45.9984 40.25 45.375 40.25Z" fill="#0D0F11"/>
<path d="M72.6949 28.8845C72.3355 29.1158 72.059 29.4559 71.8517 29.9049V28.7757H69.875V37.7824H72.1558V34.1362L72.142 33.7008C72.142 32.4491 72.2664 31.6056 72.5014 31.1702C72.7502 30.7348 73.0404 30.5308 73.3998 30.5308C73.5795 30.5308 73.8007 30.5988 74.0633 30.7348L74.7821 28.7621C74.4504 28.6124 74.1463 28.5308 73.8422 28.5308C73.4275 28.5308 73.0404 28.6532 72.6949 28.8845Z" fill="black"/>
<path d="M80.2286 28.5308C78.8739 28.5308 77.7404 28.9797 76.8419 29.8913C75.9435 30.8029 75.4873 31.9321 75.4873 33.3062C75.4873 34.6532 75.9435 35.7552 76.8419 36.6532C77.7404 37.5375 78.9154 37.9865 80.353 37.9865C81.2791 37.9865 82.0808 37.8232 82.7443 37.4967C83.4217 37.1702 83.9884 36.6804 84.4722 36.0001L82.537 35.1022C81.915 35.6872 81.1823 35.9865 80.3253 35.9865C79.6065 35.9865 79.0121 35.796 78.556 35.4151C78.0998 35.0341 77.8096 34.5307 77.699 33.8913H85.0804L85.0942 33.4559C85.0942 31.9729 84.6381 30.762 83.7396 29.8641C82.8411 28.9661 81.6661 28.5308 80.2286 28.5308ZM77.8096 32.1362C78.0722 31.5784 78.3486 31.1838 78.6528 30.9661C79.1366 30.6124 79.6895 30.4355 80.3391 30.4355C80.9335 30.4355 81.445 30.5988 81.8873 30.9117C82.3296 31.2246 82.6337 31.6328 82.7858 32.1362H77.8096Z" fill="black"/>
<path d="M73.5378 20H64V29.4285H66.1978V22.1633H73.5378V20Z" fill="black"/>
<path d="M93.7055 29.755C93.2908 29.3469 92.8485 29.0476 92.3647 28.8435C91.8809 28.6394 91.3694 28.5442 90.8165 28.5442C89.6277 28.5442 88.6048 28.9931 87.7755 29.8775C86.9461 30.7618 86.5176 31.9047 86.5176 33.2924C86.5176 34.6394 86.9461 35.755 87.8169 36.653C88.674 37.5509 89.7107 37.9999 90.8856 37.9999C91.4109 37.9999 91.9085 37.9047 92.3508 37.7278C92.807 37.5373 93.2493 37.238 93.7055 36.8162V37.7686H96.0001V25.2925H93.7055V29.755ZM93.1111 35.1836C92.6411 35.6734 92.0329 35.9183 91.3141 35.9183C90.6092 35.9183 90.0286 35.6734 89.5448 35.17C89.061 34.6666 88.826 34.0271 88.826 33.2516C88.826 32.4761 89.061 31.8503 89.531 31.3469C90.0009 30.8571 90.5953 30.6122 91.3003 30.6122C92.0329 30.6122 92.6273 30.8571 93.1111 31.3469C93.5949 31.8367 93.8299 32.4625 93.8299 33.2516C93.8161 34.0543 93.5811 34.6938 93.1111 35.1836Z" fill="black"/>
<path d="M114.408 27.6794C113.256 27.6794 112.295 28.0778 111.527 28.8609C110.758 29.6577 110.36 30.6606 110.36 31.8832C110.36 33.2433 110.841 34.3148 111.815 35.1116C112.583 35.7298 113.448 36.032 114.408 36.032C114.971 36.032 115.492 35.9221 115.973 35.7023L113.777 32.8723H116.563L117.661 34.3011C118.155 33.5592 118.402 32.7487 118.402 31.8557C118.402 30.688 118.004 29.6989 117.221 28.8884C116.467 28.0778 115.52 27.6794 114.408 27.6794Z" fill="#FF4949"/>
<path d="M100 20V44H124V20H100ZM105.983 38.2438H103.664V25.4264H105.983V38.2438ZM118.511 38.9445L117.427 37.5432C116.535 38.0378 115.533 38.2851 114.436 38.2851C112.597 38.2851 111.06 37.6531 109.839 36.3755C108.617 35.0979 108.014 33.5867 108.014 31.8283C108.014 30.6468 108.302 29.5753 108.864 28.5861C109.427 27.597 110.209 26.8277 111.211 26.237C112.199 25.66 113.269 25.3715 114.408 25.3715C116.151 25.3715 117.647 26.0034 118.895 27.2536C120.144 28.5175 120.775 30.0424 120.775 31.8558C120.775 33.518 120.24 34.9605 119.156 36.1694L121.297 38.9307H118.511V38.9445Z" fill="#FF4949"/>
<path d="M1827.5 21.5V22.3381C1830.9 22.8777 1833.5 25.8219 1833.5 29.375V30.9406C1833.5 33.0687 1834.23 35.1359 1835.55 36.8L1836.25 37.6719C1836.52 38.0094 1836.58 38.4734 1836.39 38.8625C1836.2 39.2516 1835.81 39.5 1835.38 39.5H1816.63C1816.19 39.5 1815.8 39.2516 1815.61 38.8625C1815.42 38.4734 1815.48 38.0094 1815.75 37.6719L1816.45 36.8C1817.78 35.1359 1818.5 33.0687 1818.5 30.9406V29.375C1818.5 25.8219 1821.1 22.8777 1824.5 22.3381V21.5C1824.5 20.6717 1825.17 20 1826 20C1826.83 20 1827.5 20.6717 1827.5 21.5ZM1825.63 24.5C1822.93 24.5 1820.75 26.6844 1820.75 29.375V30.9406C1820.75 33.1859 1820.1 35.375 1818.89 37.25H1833.11C1831.9 35.375 1831.25 33.1859 1831.25 30.9406V29.375C1831.25 26.6844 1829.07 24.5 1826.38 24.5H1825.63ZM1829 41C1829 41.7547 1828.69 42.5609 1828.12 43.1234C1827.56 43.6859 1826.75 44 1826 44C1825.2 44 1824.44 43.6859 1823.88 43.1234C1823.31 42.5609 1823 41.7547 1823 41H1829Z" fill="#0D0F11"/>
<rect x="1853.25" y="10.25" width="43.5" height="43.5" rx="21.75" fill="#E0FAFF"/>
<rect x="1853.25" y="10.25" width="43.5" height="43.5" rx="21.75" stroke="white" stroke-width="1.5"/>
<path d="M1877.25 34.25H1872.75C1868.19 34.25 1864.5 37.9438 1864.5 42.5C1864.5 43.3283 1865.17 44 1866 44H1884C1884.83 44 1885.5 43.3283 1885.5 42.5C1885.5 37.9438 1881.81 34.25 1877.25 34.25ZM1866.8 41.75C1867.17 38.7922 1869.69 36.5 1872.75 36.5H1877.25C1880.3 36.5 1882.83 38.7945 1883.2 41.75H1866.8ZM1875 32C1878.31 32 1881 29.3136 1881 26C1881 22.6864 1878.31 20 1875 20C1871.69 20 1869 22.6864 1869 26C1869 29.3141 1871.69 32 1875 32ZM1875 22.25C1877.07 22.25 1878.75 23.9323 1878.75 26C1878.75 28.0677 1877.07 29.75 1875 29.75C1872.93 29.75 1871.25 28.0672 1871.25 26C1871.25 23.9323 1872.93 22.25 1875 22.25Z" fill="#0D0F11"/>
</g>
<defs>
<filter id="filter0_dd_915_11182" x="-3" y="-2" width="1926" height="70" filterUnits="userSpaceOnUse" color-interpolation-filters="sRGB">
<feFlood flood-opacity="0" result="BackgroundImageFix"/>
<feColorMatrix in="SourceAlpha" type="matrix" values="0 0 0 0 0 0 0 0 0 0 0 0 0 0 0 0 0 0 127 0" result="hardAlpha"/>
<feMorphology radius="1" operator="erode" in="SourceAlpha" result="effect1_dropShadow_915_11182"/>
<feOffset dy="1"/>
<feGaussianBlur stdDeviation="1"/>
<feColorMatrix type="matrix" values="0 0 0 0 0.0627451 0 0 0 0 0.0941176 0 0 0 0 0.156863 0 0 0 0.1 0"/>
<feBlend mode="normal" in2="BackgroundImageFix" result="effect1_dropShadow_915_11182"/>
<feColorMatrix in="SourceAlpha" type="matrix" values="0 0 0 0 0 0 0 0 0 0 0 0 0 0 0 0 0 0 127 0" result="hardAlpha"/>
<feOffset dy="1"/>
<feGaussianBlur stdDeviation="1.5"/>
<feColorMatrix type="matrix" values="0 0 0 0 0.0627451 0 0 0 0 0.0941176 0 0 0 0 0.156863 0 0 0 0.1 0"/>
<feBlend mode="normal" in2="effect1_dropShadow_915_11182" result="effect2_dropShadow_915_11182"/>
<feBlend mode="normal" in="SourceGraphic" in2="effect2_dropShadow_915_11182" result="shape"/>
</filter>
</defs>
</svg>
