<svg width="60" height="24" viewBox="0 0 60 24" fill="none" xmlns="http://www.w3.org/2000/svg">
<path d="M8.69463 8.88438C8.33523 9.11567 8.05877 9.4558 7.85143 9.90478V8.77554H5.87476V17.7823H8.15553V14.1361L8.14171 13.7007C8.14171 12.449 8.26612 11.6055 8.50111 11.1701C8.74992 10.7347 9.0402 10.5306 9.3996 10.5306C9.57929 10.5306 9.80046 10.5987 10.0631 10.7347L10.7819 8.76193C10.4501 8.61227 10.146 8.53064 9.84193 8.53064C9.42724 8.53064 9.0402 8.65309 8.69463 8.88438Z" fill="#0D0F11"/>
<path d="M16.2281 8.53064C14.8734 8.53064 13.74 8.97962 12.8415 9.89118C11.943 10.8027 11.4868 11.932 11.4868 13.3061C11.4868 14.6531 11.943 15.7551 12.8415 16.653C13.74 17.5374 14.9149 17.9864 16.3525 17.9864C17.2786 17.9864 18.0803 17.8231 18.7438 17.4966C19.4212 17.17 19.9879 16.6803 20.4717 16L18.5365 15.102C17.9145 15.6871 17.1819 15.9864 16.3248 15.9864C15.606 15.9864 15.0117 15.7959 14.5555 15.415C14.0993 15.034 13.8091 14.5306 13.6985 13.8912H21.0799L21.0937 13.4558C21.0937 11.9728 20.6376 10.7619 19.7391 9.86397C18.8406 8.96601 17.6657 8.53064 16.2281 8.53064ZM13.8091 12.1361C14.0717 11.5782 14.3482 11.1837 14.6523 10.966C15.1361 10.6123 15.689 10.4354 16.3387 10.4354C16.933 10.4354 17.4445 10.5987 17.8868 10.9116C18.3292 11.2245 18.6333 11.6327 18.7853 12.1361H13.8091Z" fill="#0D0F11"/>
<path d="M9.5378 0H0V9.42852H2.19784V2.16325H9.5378V0Z" fill="#0D0F11"/>
<path d="M29.7054 9.75516C29.2907 9.347 28.8483 9.04768 28.3645 8.8436C27.8807 8.63952 27.3693 8.54429 26.8164 8.54429C25.6276 8.54429 24.6047 8.99326 23.7753 9.87761C22.946 10.762 22.5175 11.9048 22.5175 13.2926C22.5175 14.6395 22.946 15.7551 23.8168 16.6531C24.6738 17.551 25.7105 18 26.8855 18C27.4108 18 27.9084 17.9048 28.3507 17.7279C28.8069 17.5374 29.2492 17.2381 29.7054 16.8163V17.7687H32V5.2926H29.7054V9.75516ZM29.111 15.1837C28.641 15.6735 28.0328 15.9184 27.314 15.9184C26.609 15.9184 26.0285 15.6735 25.5447 15.1701C25.0609 14.6667 24.8259 14.0272 24.8259 13.2517C24.8259 12.4762 25.0609 11.8504 25.5308 11.347C26.0008 10.8572 26.5952 10.6123 27.3002 10.6123C28.0328 10.6123 28.6272 10.8572 29.111 11.347C29.5948 11.8368 29.8298 12.4626 29.8298 13.2517C29.8159 14.0545 29.581 14.6939 29.111 15.1837Z" fill="#0D0F11"/>
<path d="M50.4083 7.67944C49.2556 7.67944 48.295 8.07784 47.5266 8.8609C46.7582 9.65769 46.3602 10.6606 46.3602 11.8832C46.3602 13.2433 46.8405 14.3148 47.8148 15.1116C48.5832 15.7298 49.4477 16.032 50.4083 16.032C50.9709 16.032 51.4923 15.9221 51.9726 15.7023L49.777 12.8723H52.5626L53.6604 14.3011C54.1544 13.5592 54.4014 12.7487 54.4014 11.8557C54.4014 10.688 54.0035 9.6989 53.2213 8.88837C52.4666 8.07784 51.5197 7.67944 50.4083 7.67944Z" fill="#FF4949"/>
<path d="M36 0V24H60V0H36ZM41.9828 18.2438H39.6638V5.42645H41.9828V18.2438ZM54.5111 18.9445L53.4271 17.5432C52.5352 18.0378 51.5334 18.2851 50.4357 18.2851C48.5969 18.2851 47.06 17.6531 45.8388 16.3755C44.6175 15.0979 44.0137 13.5867 44.0137 11.8283C44.0137 10.6468 44.3019 9.57527 44.8645 8.58615C45.4271 7.59702 46.2093 6.8277 47.211 6.23698C48.199 5.65999 49.2693 5.37149 50.4082 5.37149C52.1509 5.37149 53.6467 6.00343 54.8954 7.25358C56.1441 8.51746 56.7753 10.0424 56.7753 11.8558C56.7753 13.518 56.2401 14.9605 55.1561 16.1694L57.2967 18.9307H54.5111V18.9445Z" fill="#FF4949"/>
</svg>
